<?xml version="1.0" encoding="utf-8"?>
<!-- Generator: Adobe Illustrator 27.5.0, SVG Export Plug-In . SVG Version: 6.00 Build 0)  -->
<svg version="1.1" xmlns="http://www.w3.org/2000/svg" xmlns:xlink="http://www.w3.org/1999/xlink" x="0px" y="0px"
	 viewBox="0 0 680 500" style="enable-background:new 0 0 680 500;" xml:space="preserve">
<g id="BACKGROUND">
	<g>
		<g>
			<g>
				<rect style="fill:#D6E6FD;" width="680" height="500"/>
			</g>
		</g>
		<path style="fill:#B9DFFD;" d="M98.683,201.028l206-113.655c20.864-11.511,46.528-9.784,65.661,4.42L588.152,253.49
			c42.522,31.568,27.21,98.626-24.8,108.607l-297.05,57.01c-17.85,3.426-36.298-1.308-50.293-12.906L89.251,301.15
			C56.226,273.78,61.128,221.748,98.683,201.028z"/>
	</g>
</g>
<g id="OBJECTS">
	<g>
		<g>
			<polygon style="fill:#FFC154;" points="146.721,417.21 117.59,417.21 111.685,386.907 152.627,386.907 			"/>
			<polygon style="fill:#FF9E55;" points="114.357,400.617 150.921,395.657 152.627,386.907 111.685,386.907 			"/>
			<g>
				<path style="fill:#A7E070;" d="M131.893,384.625c17.548-24.332,0.225-38.819,0-39.005v-0.005c0,0-0.002,0.002-0.003,0.002
					c0,0-0.003-0.002-0.003-0.002v0.005c-0.224,0.186-17.549,14.673,0,39.005v0.007c0.001-0.001,0.002-0.002,0.003-0.004
					c0.001,0.001,0.002,0.003,0.003,0.004V384.625z"/>
				<g>
					<g>
						<path style="fill:#75B75A;" d="M130.588,387.636c0.218-33.292,20.89-35.686,38.08-23.718L130.588,387.636z"/>
						<path style="fill:#A7E070;" d="M133.417,388.506c0-21.325,24.153-28.505,36.557-4.134L133.417,388.506z"/>
					</g>
					<g>
						<path style="fill:#75B75A;" d="M133.199,387.636c-0.218-33.292-20.89-35.686-38.08-23.718L133.199,387.636z"/>
						<path style="fill:#A7E070;" d="M130.37,388.506c0-21.325-24.153-28.505-36.557-4.134L130.37,388.506z"/>
					</g>
				</g>
			</g>
			<rect x="108.47" y="385.682" style="fill:#FFC154;" width="46.584" height="6.955"/>
		</g>
		<g>
			<path style="fill:#FFFFFF;" d="M303.145,223.019l-19.953-14.168v-84.116c0-4.128-3.346-7.474-7.473-7.474H119.763
				c-4.128,0-7.474,3.346-7.474,7.474v135.651c0,4.128,3.346,7.474,7.474,7.474h155.956c4.127,0,7.473-3.346,7.473-7.474v-23.2
				L303.145,223.019z"/>
			<g>
				
					<ellipse transform="matrix(0.2308 -0.973 0.973 0.2308 -35.4072 246.5642)" style="fill:#A7E070;" cx="138.235" cy="145.675" rx="10.153" ry="10.153"/>
				<g>
					<path style="fill:#D6E6FD;" d="M264.72,147.015H156.425c-1.48,0-2.679,1.2-2.679,2.679c0,1.48,1.199,2.679,2.679,2.679H264.72
						c1.48,0,2.679-1.199,2.679-2.679C267.399,148.214,266.2,147.015,264.72,147.015z"/>
					<path style="fill:#BDD3F4;" d="M156.425,144.336h49.283c1.48,0,2.679-1.2,2.679-2.679c0-1.48-1.2-2.679-2.679-2.679h-49.283
						c-1.48,0-2.679,1.2-2.679,2.679C153.746,143.136,154.945,144.336,156.425,144.336z"/>
				</g>
			</g>
			<g>
				<path style="fill:#FFC154;" d="M247.094,176.415c0,5.607,4.546,10.153,10.153,10.153c5.607,0,10.153-4.546,10.153-10.153
					c0-5.607-4.546-10.153-10.153-10.153C251.639,166.262,247.094,170.808,247.094,176.415z"/>
				<g>
					<path style="fill:#D6E6FD;" d="M239.056,177.755H130.761c-1.48,0-2.679,1.2-2.679,2.679c0,1.48,1.199,2.679,2.679,2.679
						h108.295c1.48,0,2.679-1.2,2.679-2.679C241.736,178.954,240.536,177.755,239.056,177.755z"/>
					<path style="fill:#BDD3F4;" d="M130.761,175.076h49.283c1.48,0,2.679-1.199,2.679-2.679c0-1.48-1.2-2.679-2.679-2.679h-49.283
						c-1.48,0-2.679,1.199-2.679,2.679C128.082,173.876,129.282,175.076,130.761,175.076z"/>
				</g>
			</g>
			<g>
				<circle style="fill:#A7E070;" cx="138.235" cy="207.719" r="10.153"/>
				<g>
					<path style="fill:#D6E6FD;" d="M264.72,209.059H156.425c-1.48,0-2.679,1.2-2.679,2.679c0,1.48,1.199,2.679,2.679,2.679H264.72
						c1.48,0,2.679-1.199,2.679-2.679C267.399,210.258,266.2,209.059,264.72,209.059z"/>
					<path style="fill:#BDD3F4;" d="M156.425,206.38h49.283c1.48,0,2.679-1.199,2.679-2.679c0-1.48-1.2-2.679-2.679-2.679h-49.283
						c-1.48,0-2.679,1.199-2.679,2.679C153.746,205.18,154.945,206.38,156.425,206.38z"/>
				</g>
			</g>
			<g>
				<circle style="fill:#FFC154;" cx="257.246" cy="238.459" r="10.153"/>
				<g>
					<path style="fill:#D6E6FD;" d="M239.056,239.799H130.761c-1.48,0-2.679,1.199-2.679,2.679c0,1.48,1.199,2.679,2.679,2.679
						h108.295c1.48,0,2.679-1.2,2.679-2.679C241.736,240.998,240.536,239.799,239.056,239.799z"/>
					<path style="fill:#BDD3F4;" d="M130.761,237.12h49.283c1.48,0,2.679-1.199,2.679-2.679c0-1.48-1.2-2.679-2.679-2.679h-49.283
						c-1.48,0-2.679,1.2-2.679,2.679C128.082,235.92,129.282,237.12,130.761,237.12z"/>
				</g>
			</g>
		</g>
		<g>
			<g>
				<path style="fill:#FFA67A;" d="M360.409,374.999l-8.283-85.932c-0.833-8.644-8.516-14.976-17.16-14.143
					c-8.644,0.833-14.976,8.516-14.143,17.16l7.013,72.762L230.26,391.53c-5.616,1.552-9.227,7.198-8.11,13.02
					c1.176,6.124,7.093,10.135,13.217,8.959l112.949-21.686l13.465-2.585L360.409,374.999z"/>
				<path style="fill:#EF946C;" d="M352.126,289.067c-0.05-0.521-0.128-1.032-0.227-1.535l-31.121,2.43
					c-0.027,0.7-0.024,1.406,0.045,2.123l3.896,40.416l31.809,2.232L352.126,289.067z"/>
				<path style="fill:#4278C6;" d="M365.295,323.655l-50.862,4.67l-3.738-40.712c-1.107-12.059,7.771-22.732,19.829-23.839
					l7.193-0.661c12.059-1.107,22.732,7.77,23.839,19.829L365.295,323.655z"/>
				<path style="fill:#FFA67A;" d="M232.633,413.72c-10.368,0.63-28.362,0.446-35.538-7.447c0,0-15.802,5.934-20.195,6.202
					c-4.394,0.268-6.205-3.355-6.205-3.355s26.142-19.671,31.836-21.742c5.694-2.071,31.577,3.106,31.577,3.106l4.221,15.302
					C239.392,409.642,236.626,413.478,232.633,413.72z"/>
			</g>
			<g>
				<g>
					<path style="fill:#5295FE;" d="M393.499,247.341c-29.626,0-52.476,7.261-66.885,16.867l16.137,81.583l-3.336,78.203
						c0,0,57.521,13.531,115.415,0l-6.685-78.218l5.782-82.665C453.927,263.11,430.565,251.67,393.499,247.341z"/>
				</g>
				<path style="fill:#FFB692;" d="M421.717,261.247c0,12.863-14.984,23.29-33.468,23.29c-18.484,0-33.468-10.427-33.468-23.29
					c0-12.862,14.984-11.752,33.468-11.752C406.732,249.495,421.717,248.384,421.717,261.247z"/>
			</g>
			<g>
				<path style="fill:#FFB692;" d="M472.396,374.999l-8.283-85.932c-0.833-8.644-8.516-14.976-17.16-14.143
					c-8.644,0.833-14.976,8.516-14.143,17.16l7.013,72.762l-97.577,26.685c-5.616,1.552-9.228,7.198-8.11,13.02
					c1.176,6.124,7.093,10.135,13.217,8.959l112.95-21.686l13.465-2.585L472.396,374.999z"/>
				<polygon style="fill:#D88D87;" points="465.222,300.567 433.836,302.72 436.561,330.996 468.501,334.582 				"/>
				<path style="fill:#4278C6;" d="M477.282,323.655l-50.862,4.67l-3.738-40.712c-1.107-12.059,7.771-22.732,19.829-23.839
					l7.194-0.661c12.059-1.108,22.732,7.77,23.839,19.829L477.282,323.655z"/>
				<path style="fill:#FFB692;" d="M344.62,413.72c-10.368,0.63-28.362,0.446-35.538-7.447c0,0-15.802,5.934-20.195,6.202
					c-4.394,0.268-6.205-3.355-6.205-3.355s26.142-19.671,31.836-21.742c5.694-2.071,31.577,3.106,31.577,3.106l4.221,15.302
					C351.38,409.642,348.613,413.478,344.62,413.72z"/>
			</g>
			<g>
				<g>
					<g>
						<g>
							
								<ellipse transform="matrix(0.9985 -0.0545 0.0545 0.9985 -9.8398 18.952)" style="fill:#6D86AA;" cx="342.682" cy="189.95" rx="14.712" ry="18.468"/>
						</g>
						<path style="fill:#FFFFFF;" d="M334.348,190.404c0.556,10.185,7.583,18.082,15.696,17.639
							c8.113-0.443,14.239-9.058,13.684-19.242c-0.556-10.184-7.583-18.082-15.696-17.639
							C339.918,171.605,333.792,180.22,334.348,190.404z"/>
					</g>
					<path style="fill:#323244;" d="M341.98,150.898c-21.327,20.77,6.969,44.135,6.969,44.135l-1.332-44.755L341.98,150.898z"/>
					<path style="fill:#FFB692;" d="M411.721,252.442c-2.841-52.055-11.529-24.447-24.067-23.763
						c-12.538,0.684-23.995-22.457-21.338,26.241c0.995,18.243,11.074,16.113,23.612,15.429
						C402.467,269.664,412.717,270.685,411.721,252.442z"/>
					<path style="fill:#D88D87;" d="M365.961,239.687c0.618-27.983,10.743-10.411,21.694-11.008
						c12.14-0.663,20.671-26.565,23.779,19.047C392.382,255.125,376.93,248.586,365.961,239.687z"/>
					<path style="fill:#FFB692;" d="M391.254,132.148l-20.202,1.103c-15.763,0.86-27.957,14.462-27.097,30.225l2.277,41.724
						c1.201,22.012,20.194,39.04,42.207,37.839h0c22.012-1.201,39.04-20.195,37.839-42.207l-2.139-39.203
						C423.202,144.479,408.404,131.212,391.254,132.148z"/>
					<path style="fill:#D88D87;" d="M410.68,189.124c0.538,9.861,7.1,17.738,15.302,19.127c0.321-2.42,0.433-4.898,0.296-7.419
						l-1.776-32.547C416.14,170.253,410.127,178.984,410.68,189.124z"/>
					<path style="fill:#D88D87;" d="M423.994,159.914c-1.792-16.311-16.167-28.671-32.741-27.766l-20.202,1.103
						c-6.755,0.369-12.851,3.082-17.548,7.298C374.983,167.861,405.12,165.289,423.994,159.914z"/>
					<path style="fill:#323244;" d="M400.127,174.114l-6.76-2.179c-2.091-0.674-3.251-2.937-2.577-5.028l0,0
						c0.674-2.092,2.937-3.251,5.028-2.577l6.76,2.179c2.092,0.674,3.251,2.937,2.577,5.028l0,0
						C404.481,173.628,402.219,174.788,400.127,174.114z"/>
					<path style="fill:#323244;" d="M368.34,173.781l-6.216,3.437c-1.923,1.063-4.366,0.36-5.429-1.563l0,0
						c-1.063-1.923-0.36-4.366,1.563-5.43l6.216-3.437c1.923-1.063,4.366-0.36,5.43,1.563l0,0
						C370.967,170.275,370.263,172.718,368.34,173.781z"/>
					<path style="fill:#D88D87;" d="M373.886,202.718c0,0,10.548,1.342,10.702,3.298c0.154,1.956-4.878,3.165-6.322,2.403
						C376.821,207.655,373.886,202.718,373.886,202.718z"/>
					<g>
						<path style="fill:#34344F;" d="M369.544,183.992c0.133,2.431-1.73,4.509-4.161,4.642c-2.431,0.133-4.509-1.73-4.642-4.161
							c-0.133-2.431,1.73-4.509,4.161-4.642C367.334,179.698,369.412,181.561,369.544,183.992z"/>
						<path style="fill:#34344F;" d="M401.194,182.265c0.133,2.431-1.731,4.509-4.161,4.642c-2.431,0.133-4.509-1.73-4.642-4.161
							c-0.133-2.431,1.73-4.509,4.161-4.642C398.983,177.971,401.061,179.834,401.194,182.265z"/>
						<g>
							<path style="fill:#34344F;" d="M381.076,179.579c-0.46,2.555-1.017,5.072-1.621,7.571c-0.602,2.5-1.25,4.982-1.936,7.453
								c-0.689,2.471-1.393,4.936-2.168,7.387l-0.154,0.458c-0.014,0.021-0.031,0.15-0.008-0.06
								c-0.012-0.17-0.027-0.192-0.044-0.238c-0.031-0.066-0.035-0.044-0.014-0.016c0.072,0.13,0.301,0.355,0.503,0.554
								c0.434,0.403,0.906,0.832,1.395,1.236c0.964,0.838,1.958,1.671,2.892,2.626c-1.295-0.34-2.503-0.853-3.683-1.448
								c-0.581-0.316-1.167-0.627-1.733-1.038c-0.291-0.214-0.56-0.408-0.884-0.789c-0.078-0.097-0.17-0.213-0.262-0.427
								c-0.044-0.122-0.092-0.219-0.096-0.471c0.01-0.292,0.029-0.238,0.036-0.295l0.125-0.468c0.712-2.487,1.494-4.961,2.291-7.428
								c0.8-2.467,1.639-4.923,2.523-7.362C379.12,184.384,380.05,181.962,381.076,179.579z"/>
						</g>
					</g>
					<g>
						<path style="fill:#34344F;" d="M375.31,214.677c5.273-1.649,12.584-4.321,19.29-8.112c4.411-2.494,9.369,2.847,7.655,8.325
							c-1.825,5.829-5.701,11.612-13.744,13.54c-6.592,1.579-11.117,0.452-14.206-1.618
							C369.932,223.881,370.61,216.146,375.31,214.677z"/>
						<path style="fill:#FF9292;" d="M388.511,228.429c8.044-1.927,11.92-7.711,13.744-13.54c0.257-0.822,0.348-1.636,0.33-2.425
							c-3.088-0.875-7.026-0.83-12.03,1.066c-7.73,2.929-10.801,9.145-11.829,15.145c-0.002,0.012-0.001,0.023-0.004,0.035
							C381.331,229.338,384.54,229.38,388.511,228.429z"/>
						<path style="fill:#FFABAB;" d="M383.627,222.352c1.006,1.256,4.055,0.576,6.809-1.521c2.755-2.097,4.172-4.814,3.166-6.071
							c-1.006-1.256-4.055-0.576-6.809,1.521C384.038,218.378,382.62,221.096,383.627,222.352z"/>
						<path style="fill:#FFFFFF;" d="M375.31,214.677c5.273-1.649,12.584-4.321,19.29-8.112c2.709-1.532,5.619-0.103,7.068,2.493
							c-3.623,4.347-9.552,8.309-16.797,10.763c-4.646,1.574-9.239,2.323-13.393,2.331
							C370.987,219.019,372.347,215.603,375.31,214.677z"/>
					</g>
					<path style="fill:#323244;" d="M410.712,156.997c-100.393,24.706-90.358-25.817-90.358-25.817l5.434,7.757
						c0,0-4.323-23.626,17.819-32.203l2.93,14.844c0,0,34.764-17.776,68.877,3.38c34.113,21.156,16.612,71.676,16.612,71.676
						S417.34,197.297,410.712,156.997z"/>
					<path style="fill:#49496B;" d="M425.185,133.248c-2.629-3.037-5.813-5.817-9.663-8.22
						c-23.944,17.128-60.175,34.056-90.066,9.908c0.05,2.447,0.332,4.001,0.332,4.001l-5.434-7.757c0,0-0.548,2.761-0.106,6.675
						C353.608,167.754,398.516,154.343,425.185,133.248z"/>
					<g>
						<path style="fill:#FFB692;" d="M418.956,183.798c-0.807,7.576,2.648,14.266,7.717,14.944
							c5.07,0.678,9.834-4.914,10.642-12.489c0.808-7.576-2.648-14.267-7.718-14.945
							C424.529,170.631,419.764,176.223,418.956,183.798z"/>
						<path style="fill:#D88D87;" d="M424.303,184.264c-0.774-0.104-1.536,0.023-2.259,0.327c0.01-0.126,0.014-0.249,0.027-0.376
							c0.534-5.005,3.681-8.699,7.031-8.251c3.349,0.448,5.632,4.868,5.098,9.873c-0.41,3.848-2.367,6.912-4.771,7.924
							C429.812,188.913,427.568,184.7,424.303,184.264z"/>
					</g>
					<g>
						<g>
							<path style="fill:#FFFFFF;" d="M445.493,187.378c0.556,10.184-5.571,18.799-13.684,19.242
								c-8.113,0.443-15.14-7.454-15.696-17.639c-0.556-10.185,5.571-18.8,13.684-19.242
								C437.91,169.297,444.937,177.194,445.493,187.378z"/>
							<path style="fill:#6D86AA;" d="M451.848,187.032c0.556,10.185-5.57,18.799-13.684,19.242
								c-8.113,0.443-15.141-7.454-15.696-17.639c-0.556-10.184,5.571-18.8,13.684-19.242
								C444.265,168.95,451.293,176.847,451.848,187.032z"/>
						</g>
						<path style="fill:#FFAC52;" d="M444.503,187.433c0.278,5.092-2.785,9.4-6.842,9.621c-4.057,0.221-7.57-3.727-7.848-8.819
							c-0.278-5.092,2.785-9.4,6.842-9.621C440.712,178.391,444.226,182.34,444.503,187.433z"/>
					</g>
					<path style="fill:#6D86AA;" d="M430.895,173.817c4.682-32.718-14.458-52.509-38.053-54.748l7.213-0.893
						c0,0,43.433-0.161,40.135,56.27L430.895,173.817z"/>
				</g>
				<g>
					<path style="fill:none;stroke:#6D86AA;stroke-width:2;stroke-miterlimit:10;" d="M337.039,205.342
						c-0.815,25.815,25.591,23.672,25.591,23.672"/>
					<path style="fill:#FFFFFF;" d="M366.613,231.938l-4.32,0.129c-1.637,0.049-3.003-1.239-3.052-2.875l0,0
						c-0.049-1.637,1.239-3.003,2.875-3.052l4.32-0.129c1.637-0.049,3.003,1.239,3.052,2.875l0,0
						C369.537,230.522,368.25,231.889,366.613,231.938z"/>
				</g>
			</g>
		</g>
		<g>
			<g>
				<g>
					<path style="fill:#FFC154;" d="M533.7,55.884h-72.208c-9.626,0-17.43,7.804-17.43,17.43v36.104
						c0,9.206,7.142,16.726,16.185,17.367v19.567l19.505-19.504H533.7c9.626,0,17.43-7.803,17.43-17.43V73.314
						C551.129,63.688,543.326,55.884,533.7,55.884z"/>
				</g>
			</g>
			<g>
				<path style="fill:#FFFFFF;" d="M472.742,85.41c-4.128,0-7.475,3.347-7.475,7.475c0,4.128,3.347,7.475,7.475,7.475
					c4.128,0,7.475-3.346,7.475-7.475C480.217,88.756,476.87,85.41,472.742,85.41z"/>
				<path style="fill:#FFFFFF;" d="M497.596,85.41c-4.128,0-7.475,3.347-7.475,7.475c0,4.128,3.346,7.475,7.475,7.475
					c4.128,0,7.475-3.346,7.475-7.475C505.071,88.756,501.724,85.41,497.596,85.41z"/>
				<path style="fill:#FFFFFF;" d="M522.449,85.41c-4.128,0-7.475,3.347-7.475,7.475c0,4.128,3.347,7.475,7.475,7.475
					c4.128,0,7.475-3.346,7.475-7.475C529.924,88.756,526.578,85.41,522.449,85.41z"/>
			</g>
		</g>
		<path style="fill:#BDD3F4;" d="M600.931,444.116H79.069c-7.538,0-13.648-6.111-13.648-13.648l0,0
			c0-7.538,6.111-13.648,13.648-13.648h521.862c7.538,0,13.648,6.111,13.648,13.648l0,0
			C614.579,438.005,608.468,444.116,600.931,444.116z"/>
		<g>
			<polygon style="fill:#FFFFFF;" points="165.759,409.63 308.682,409.611 278.836,309.116 136.061,309.116 			"/>
			
				<rect x="165.77" y="409.594" transform="matrix(-1 -1.224647e-16 1.224647e-16 -1 540.5514 826.3271)" style="fill:#A0B8E8;" width="209.011" height="7.139"/>
			
				<rect x="165.77" y="409.594" transform="matrix(-1 -1.224647e-16 1.224647e-16 -1 474.4466 826.3271)" style="fill:#EFF6FF;" width="142.906" height="7.139"/>
			<polygon style="fill:#8BA6D1;" points="278.836,309.116 284.262,309.116 314.53,409.915 308.676,409.594 			"/>
			<path style="fill:#A0B8E8;" d="M207.686,368.25c2.338,7.182,9.218,11.38,15.367,9.378c6.149-2.002,9.238-9.447,6.9-16.629
				c-2.339-7.181-9.219-11.38-15.367-9.378C208.436,353.624,205.348,361.068,207.686,368.25z"/>
		</g>
		<g>
			<g>
				<path style="fill:#FFFFFF;" d="M525.184,416.814h-23.22c-4.582,0-8.296-3.714-8.296-8.296v-45.493h39.813v45.493
					C533.48,413.1,529.766,416.814,525.184,416.814z"/>
				<g>
					<path style="fill:#FFFFFF;" d="M539.516,406.12h-12.918v-37.695h12.918c6.071,0,11.011,4.94,11.011,11.013v15.671
						C550.527,401.18,545.587,406.12,539.516,406.12z M532.316,400.402h7.2c2.919,0,5.294-2.374,5.294-5.293v-15.671
						c0-2.919-2.375-5.295-5.294-5.295h-7.2V400.402z"/>
				</g>
			</g>
			<path style="fill:#EFF6FF;" d="M503.126,416.814h20.896c5.224,0,9.458-4.235,9.458-9.458v-6.192
				c-10.84,7.923-26.715-9.485-39.813-15.251v21.444C493.668,412.58,497.902,416.814,503.126,416.814z"/>
		</g>
		<g>
			<path style="fill:#5295FE;" d="M599.13,206.839H482.523c-2.963,0-5.366,2.402-5.366,5.366v7.696l-14.134,7.093l14.134,7.093
				v7.696c0,2.963,2.402,5.366,5.366,5.366H599.13c2.963,0,5.366-2.402,5.366-5.366v-29.577
				C604.496,209.241,602.094,206.839,599.13,206.839z"/>
			<g>
				<polygon style="fill:#FFC154;" points="493.916,233.445 488.573,235.345 488.729,229.677 485.272,225.183 490.71,223.58 
					493.916,218.903 497.121,223.58 502.56,225.183 499.102,229.677 499.258,235.345 				"/>
				<polygon style="fill:#FFC154;" points="517.535,233.445 512.193,235.345 512.348,229.677 508.891,225.183 514.329,223.58 
					517.535,218.903 520.74,223.58 526.179,225.183 522.721,229.677 522.877,235.345 				"/>
				<polygon style="fill:#FFC154;" points="541.154,233.445 535.812,235.345 535.968,229.677 532.51,225.183 537.949,223.58 
					541.154,218.903 544.359,223.58 549.798,225.183 546.341,229.677 546.497,235.345 				"/>
				<polygon style="fill:#FFC154;" points="564.773,233.445 559.431,235.345 559.587,229.677 556.129,225.183 561.568,223.58 
					564.773,218.903 567.979,223.58 573.417,225.183 569.96,229.677 570.116,235.345 				"/>
				<polygon style="fill:#FFFFFF;" points="588.393,233.445 583.05,235.345 583.206,229.677 579.748,225.183 585.187,223.58 
					588.393,218.903 591.598,223.58 597.037,225.183 593.579,229.677 593.735,235.345 				"/>
			</g>
		</g>
	</g>
</g>
</svg>
