<svg width="48" height="48" viewBox="0 0 48 48" fill="none" xmlns="http://www.w3.org/2000/svg">
<rect width="48" height="48" rx="16" fill="white"/>
<g clip-path="url(#clip0)">
<path d="M24.6152 34.5H16.7812C14.9719 34.5 13.5 33.0281 13.5 31.2188V20.1035C13.5 18.2942 14.9719 16.8223 16.7812 16.8223H24.6152C26.4246 16.8223 27.8965 18.2942 27.8965 20.1035V31.2188C27.8965 33.0281 26.4246 34.5 24.6152 34.5ZM16.7812 18.4629C15.8767 18.4629 15.1406 19.1989 15.1406 20.1035V31.2188C15.1406 32.1233 15.8767 32.8594 16.7812 32.8594H24.6152C25.5198 32.8594 26.2559 32.1233 26.2559 31.2188V20.1035C26.2559 19.1989 25.5198 18.4629 24.6152 18.4629H16.7812ZM31.1777 29.168V16.7812C31.1777 14.9719 29.7058 13.5 27.8965 13.5H18.791C18.3379 13.5 17.9707 13.8672 17.9707 14.3203C17.9707 14.7734 18.3379 15.1406 18.791 15.1406H27.8965C28.8011 15.1406 29.5371 15.8767 29.5371 16.7812V29.168C29.5371 29.6211 29.9043 29.9883 30.3574 29.9883C30.8105 29.9883 31.1777 29.6211 31.1777 29.168Z" fill="#48C7DD"/>
</g>
<defs>
<clipPath id="clip0">
<rect width="21" height="21" fill="white" transform="translate(13.5 13.5)"/>
</clipPath>
</defs>
</svg>
