<svg width="92" height="92" viewBox="0 0 92 92" fill="none" xmlns="http://www.w3.org/2000/svg">
<path d="M46 92C20.6348 92 0 71.3643 0 46C0 20.6357 20.6348 0 46 0C71.3652 0 92 20.6357 92 46C92 71.3643 71.3652 92 46 92Z" fill="#A84D90"/>
<g clip-path="url(#clip0)">
<path d="M34.0047 42.9914C33.1515 42.9914 32.4314 43.9311 32.4314 45.0422C32.4314 46.1542 33.1514 47.0939 34.0047 47.0939C34.8578 47.0939 35.5787 46.1542 35.5787 45.0422C35.5787 43.9311 34.8578 42.9914 34.0047 42.9914Z" fill="white"/>
<path d="M47.801 53.8369C46.9479 53.8369 46.2278 54.7766 46.2278 55.8885C46.2278 56.9996 46.9478 57.9393 47.801 57.9393C48.6542 57.9393 49.3752 56.9996 49.3752 55.8885C49.3752 54.7766 48.6542 53.8369 47.801 53.8369Z" fill="white"/>
<path d="M56.7417 37.2218C42.88 24.4671 43.589 24.9543 42.487 24.5261C40.9208 23.9049 39.0572 24.2297 37.77 25.4139L24.9373 37.2218C23.4944 38.5489 22.6667 40.4375 22.6667 42.4044V63.3142C22.6667 65.7778 24.6611 67.7831 27.112 67.7831H54.566C57.017 67.7831 59.0112 65.7778 59.0112 63.3142V42.4044C59.0113 40.4375 58.1836 38.5489 56.7417 37.2218ZM39.5164 32.7393C39.5993 31.9447 40.3281 31.3804 41.1435 31.5334C41.9233 31.696 42.3625 32.4443 42.2172 33.1412C42.0627 33.8837 41.3642 34.3567 40.6094 34.2149C39.8884 34.0646 39.4483 33.4096 39.5164 32.7393ZM29.697 45.0422C29.697 42.4035 31.6294 40.257 34.0047 40.257C36.381 40.257 38.3133 42.4035 38.3133 45.0422C38.3133 47.6808 36.3809 49.8282 34.0047 49.8282C31.6294 49.8282 29.697 47.6808 29.697 45.0422ZM37.5349 59.5945C36.5688 59.5945 35.8945 58.6039 36.2753 57.6978L42.9309 41.8347C43.2235 41.1384 44.0247 40.8103 44.721 41.1028C45.4174 41.3945 45.7446 42.1966 45.4529 42.8929L38.7964 58.756C38.5767 59.2791 38.0699 59.5945 37.5349 59.5945ZM47.8009 60.6737C45.4256 60.6737 43.4933 58.5272 43.4933 55.8885C43.4933 53.2498 45.4257 51.1025 47.8009 51.1025C50.1763 51.1025 52.1095 53.2498 52.1095 55.8885C52.1095 58.5272 50.1763 60.6737 47.8009 60.6737Z" fill="white"/>
<path d="M68.9903 52.2373C64.5388 39.2787 62.0663 32.0738 62.0312 31.9919C61.2573 30.2 59.7533 28.8064 57.9067 28.1693C57.8007 28.1333 58.426 28.2851 48.5103 25.9326L58.5922 35.2094C60.5964 37.0524 61.7459 39.6746 61.7459 42.4044V60.1232L66.6643 58.0177C68.8891 57.0552 69.9237 54.4712 68.9903 52.2373Z" fill="white"/>
</g>
<defs>
<clipPath id="clip0">
<rect width="46.6667" height="46.6667" fill="white" transform="translate(22.6667 22.6667)"/>
</clipPath>
</defs>
</svg>
