<svg width="42" height="26" viewBox="0 0 42 26" fill="none" xmlns="http://www.w3.org/2000/svg">
<path d="M13.2857 25.8571C20.3865 25.8571 26.1429 20.1008 26.1429 13C26.1429 5.89916 20.3865 0.142822 13.2857 0.142822C6.18493 0.142822 0.428589 5.89916 0.428589 13C0.428589 20.1008 6.18493 25.8571 13.2857 25.8571Z" fill="#F52825"/>
<path d="M28.7143 25.8571C35.8151 25.8571 41.5715 20.1008 41.5715 13C41.5715 5.89916 35.8151 0.142822 28.7143 0.142822C21.6135 0.142822 15.8572 5.89916 15.8572 13C15.8572 20.1008 21.6135 25.8571 28.7143 25.8571Z" fill="#FCB031"/>
<path fill-rule="evenodd" clip-rule="evenodd" d="M21 2.71423C17.8742 5.07659 15.8572 8.80497 15.8572 12.9999C15.8572 17.1949 17.8742 20.9233 21 23.2857C24.1259 20.9233 26.1429 17.1949 26.1429 12.9999C26.1429 8.80497 24.1259 5.07659 21 2.71423Z" fill="#FF7814"/>
</svg>
