<svg width="80" height="80" viewBox="0 0 80 80" fill="none" xmlns="http://www.w3.org/2000/svg">
<circle cx="40" cy="40" r="39" stroke="#A986B0" stroke-width="2"/>
<path d="M39.6484 23.3333C31.5713 23.3333 25 29.9046 25 37.9818C25 38.8769 25 45.8013 25 45.9245C25 47.5399 26.3143 48.8542 27.9297 48.8542H29.0742C29.4773 49.9908 30.5628 50.8073 31.8359 50.8073C33.4514 50.8073 34.7656 49.493 34.7656 47.8776V39.9349C34.7656 38.3195 33.4514 37.0052 31.8359 37.0052C30.5628 37.0052 29.4773 37.8217 29.0742 38.9583H27.9297C27.5873 38.9583 27.2588 39.0179 26.9531 39.1263V37.9818C26.9531 30.9816 32.6482 25.2865 39.6484 25.2865C46.6486 25.2865 52.3437 30.9816 52.3437 37.9818V39.1263C52.0381 39.0179 51.7096 38.9583 51.3672 38.9583H50.2227C49.8195 37.8217 48.734 37.0052 47.4609 37.0052C45.8455 37.0052 44.5312 38.3195 44.5312 39.9349V47.8776C44.5312 49.493 45.8455 50.8073 47.4609 50.8073C47.7566 50.8073 48.042 50.7629 48.3113 50.6811C47.946 51.883 46.8276 52.7604 45.5078 52.7604H42.4102C42.007 51.6238 40.9215 50.8073 39.6484 50.8073C38.033 50.8073 36.7188 52.1215 36.7188 53.737C36.7188 55.3524 38.033 56.6667 39.6484 56.6667C40.9215 56.6667 42.007 55.8501 42.4102 54.7135H45.5078C48.2002 54.7135 50.3906 52.5231 50.3906 49.8307V48.8542H51.3672C52.9826 48.8542 54.2969 47.5399 54.2969 45.9245C54.2969 45.8031 54.2969 38.8762 54.2969 37.9818C54.2969 29.9046 47.7256 23.3333 39.6484 23.3333ZM30.8594 39.9349C30.8594 39.3964 31.2975 38.9583 31.8359 38.9583C32.3744 38.9583 32.8125 39.3964 32.8125 39.9349V47.8776C32.8125 48.4161 32.3744 48.8542 31.8359 48.8542C31.2975 48.8542 30.8594 48.4161 30.8594 47.8776V39.9349ZM27.9297 40.9115H28.9062V46.901H27.9297C27.3912 46.901 26.9531 46.463 26.9531 45.9245V41.888C26.9531 41.3495 27.3912 40.9115 27.9297 40.9115ZM39.6484 54.7135C39.11 54.7135 38.6719 54.2755 38.6719 53.737C38.6719 53.1985 39.11 52.7604 39.6484 52.7604C40.1869 52.7604 40.625 53.1985 40.625 53.737C40.625 54.2755 40.1869 54.7135 39.6484 54.7135ZM48.4375 47.8776C48.4375 48.4161 47.9994 48.8542 47.4609 48.8542C46.9225 48.8542 46.4844 48.4161 46.4844 47.8776V39.9349C46.4844 39.3964 46.9225 38.9583 47.4609 38.9583C47.9994 38.9583 48.4375 39.3964 48.4375 39.9349V47.8776ZM52.3437 45.9245C52.3437 46.463 51.9057 46.901 51.3672 46.901H50.3906V40.9115H51.3672C51.9057 40.9115 52.3437 41.3495 52.3437 41.888V45.9245Z" fill="#A986B0"/>
</svg>
