<svg width="80" height="80" viewBox="0 0 80 80" fill="none" xmlns="http://www.w3.org/2000/svg">
<circle cx="40" cy="40" r="39" stroke="#A986B0" stroke-width="2"/>
<g clip-path="url(#clip0)">
<path fill-rule="evenodd" clip-rule="evenodd" d="M51.6927 25C52.2321 25 52.6693 25.4372 52.6693 25.9766V38.9341C56.0783 40.6395 58.3333 44.1409 58.3333 48.0957C58.3333 53.7496 53.7496 58.3333 48.0957 58.3333C44.1409 58.3333 40.6395 56.0783 38.9341 52.6693H25.9766C25.4372 52.6693 25 52.2321 25 51.6927V25.9766C25 25.4372 25.4372 25 25.9766 25H51.6927ZM43.4896 26.9531V32.4259C43.4896 33.1281 42.7404 33.6685 42.0087 33.2621L38.8346 31.6493L35.5949 33.2957C34.9447 33.625 34.1815 33.1444 34.182 32.4259L34.1797 26.9531H26.9531V50.7161H38.1968C37.2515 47.1369 38.3146 43.3988 40.8567 40.8567C43.3988 38.3146 47.1369 37.2515 50.7161 38.1968V26.9531H43.4896ZM44.987 52.4089H49.544C50.5847 52.4089 51.5289 51.9849 52.2125 51.3011C52.9312 50.5826 53.3203 49.6518 53.3203 48.568C53.3203 46.4867 51.6253 44.7917 49.544 44.7917H46.8302L47.4035 44.2174C48.3065 43.309 46.9256 41.936 46.0225 42.8441L43.7828 45.0879C43.4036 45.4692 43.4052 46.0859 43.7866 46.465L46.0307 48.7048C46.9388 49.6078 48.3121 48.2269 47.404 47.3239L46.8236 46.7448H49.544C50.6014 46.7448 51.3672 47.5901 51.3672 48.6326C51.3672 49.6356 50.547 50.4557 49.544 50.4557H44.987C44.4476 50.4557 44.0104 50.8929 44.0104 51.4323C44.0104 51.9717 44.4476 52.4089 44.987 52.4089ZM42.2376 42.2376C39.0025 45.473 39.0025 50.7187 42.2376 53.9538C45.473 57.1892 50.7187 57.1892 53.9538 53.9538C57.1892 50.7187 57.1892 45.473 53.9538 42.2376C50.7187 39.0025 45.4727 39.0025 42.2376 42.2376ZM41.5365 26.9531H36.1328V30.837L38.3937 29.688C38.6604 29.5527 38.9857 29.5418 39.2733 29.6867L41.5365 30.837V26.9531Z" fill="#A986B0"/>
</g>
<defs>
<clipPath id="clip0">
<rect width="33.3333" height="33.3333" fill="white" transform="translate(25 25)"/>
</clipPath>
</defs>
</svg>
