<svg width="80" height="80" viewBox="0 0 80 80" fill="none" xmlns="http://www.w3.org/2000/svg">
<circle cx="40" cy="40" r="39" stroke="#A986B0" stroke-width="2"/>
<g clip-path="url(#clip0)">
<path d="M27.6557 31.4238C28.0872 31.4238 28.5188 31.2468 28.5188 30.8925V28.0371H30.1901C30.5553 28.0371 30.7102 27.6829 30.7102 27.384C30.7102 27.03 30.5223 26.7091 30.1901 26.7091H28.5188V24.8386H31.3854C31.7173 24.8386 31.9055 24.4844 31.9055 24.0749C31.9055 23.7207 31.7506 23.3333 31.3854 23.3333H27.5448C27.1687 23.3333 26.7923 23.5106 26.7923 23.8646V30.8925C26.7923 31.2468 27.2238 31.4238 27.6557 31.4238Z" fill="#A986B0"/>
<path d="M34.4623 31.4238C34.8939 31.4238 35.3257 31.2468 35.3257 30.8925V28.2253H36.0561L37.5723 31.1692C37.6941 31.4017 37.9045 31.4904 38.1257 31.4904C38.6348 31.4904 39.2104 31.0255 39.2104 30.5937C39.2104 30.5385 39.1994 30.461 39.1549 30.3946L37.8048 27.9486C38.5794 27.6498 39.144 26.9415 39.144 25.7018C39.144 23.8979 37.9375 23.3333 36.4213 23.3333H34.1302C33.8093 23.3333 33.5989 23.5767 33.5989 23.8534V30.8925C33.5989 31.2468 34.0308 31.4238 34.4623 31.4238ZM35.3257 24.8386H36.4213C37.0411 24.8386 37.4175 25.0932 37.4175 25.8681C37.4175 26.6427 37.0411 26.8973 36.4213 26.8973H35.3257V24.8386Z" fill="#A986B0"/>
<path d="M41.9221 31.4238H45.8622C46.2274 31.4238 46.3825 31.0365 46.3825 30.6825C46.3825 30.2728 46.1943 29.9188 45.8622 29.9188H42.8961V28.0371H44.5563C44.9215 28.0371 45.0764 27.6829 45.0764 27.384C45.0764 27.03 44.8882 26.7091 44.5563 26.7091H42.8961V24.8386H45.8622C46.1943 24.8386 46.3825 24.4844 46.3825 24.0749C46.3825 23.7207 46.2274 23.3333 45.8622 23.3333H41.9221C41.5457 23.3333 41.1693 23.5106 41.1693 23.8646V30.8925C41.1693 31.2468 41.5457 31.4238 41.9221 31.4238Z" fill="#A986B0"/>
<path d="M48.9943 31.4238H52.9346C53.2998 31.4238 53.4547 31.0365 53.4547 30.6825C53.4547 30.2728 53.2665 29.9188 52.9346 29.9188H49.9683V28.0371H51.6285C51.9937 28.0371 52.1486 27.6829 52.1486 27.384C52.1486 27.03 51.9604 26.7091 51.6285 26.7091H49.9683V24.8386H52.9346C53.2665 24.8386 53.4547 24.4844 53.4547 24.0749C53.4547 23.7207 53.2998 23.3333 52.9346 23.3333H48.9943C48.6179 23.3333 48.2418 23.5106 48.2418 23.8646V30.8925C48.2415 31.2468 48.6179 31.4238 48.9943 31.4238Z" fill="#A986B0"/>
<path d="M54.3402 42.2062L51.8195 41.1744L49.6929 36.4246C49.3709 35.7054 48.6548 35.2408 47.8685 35.2408H29.062C28.5226 35.2408 28.0854 35.6782 28.0854 36.2176V38.0972H24.3099C23.7705 38.0972 23.3333 38.5346 23.3333 39.0738C23.3333 39.6132 23.7705 40.0506 24.3099 40.0506H28.0854V42.0037H26.3927C25.8533 42.0037 25.4162 42.4409 25.4162 42.9803C25.4162 43.5194 25.8533 43.9569 26.3927 43.9569H28.0854V45.91H26.3927C25.8533 45.91 25.4162 46.3471 25.4162 46.8865C25.4162 47.4259 25.8533 47.8631 26.3927 47.8631H28.0854V49.8518C28.0854 50.3912 28.5226 50.8284 29.062 50.8284H30.3165C30.3811 52.443 31.7104 53.7367 33.3362 53.7367C34.9618 53.7367 36.2914 52.443 36.3557 50.8284H48.0681C48.1327 52.443 49.4622 53.7367 51.0878 53.7367C52.7136 53.7367 54.0429 52.443 54.1075 50.8284H55.6901C56.2295 50.8284 56.6667 50.3912 56.6667 49.8518V45.6783C56.6667 44.1473 55.7534 42.7845 54.3402 42.2062ZM47.9102 37.2226L49.5808 40.9537H45.9481V37.1942H47.8685C47.886 37.1942 47.9025 37.2054 47.9102 37.2226ZM33.3362 51.7836C32.7465 51.7836 32.2666 51.3002 32.2666 50.7058C32.2666 50.1115 32.7465 49.628 33.3362 49.628C33.926 49.628 34.4056 50.1115 34.4056 50.7058C34.4056 51.2999 33.926 51.7836 33.3362 51.7836ZM51.0878 51.7836C50.4981 51.7836 50.0184 51.3002 50.0184 50.7058C50.0184 50.1115 50.4983 49.628 51.0878 49.628C51.6778 49.628 52.1575 50.1115 52.1575 50.7058C52.1575 51.2999 51.6776 51.7836 51.0878 51.7836ZM54.7136 48.8753H53.4951C52.9425 48.1464 52.0692 47.6747 51.0878 47.6747C50.1064 47.6747 49.2331 48.1464 48.6807 48.8753H35.7433C35.1909 48.1464 34.3176 47.6747 33.3362 47.6747C32.3548 47.6747 31.4815 48.1464 30.9289 48.8753H30.0386V43.9569H31.4709C32.0103 43.9569 32.4474 43.5194 32.4474 42.9803C32.4474 42.4409 32.0103 42.0037 31.4709 42.0037H30.0386V37.1942H43.995V41.9302C43.995 42.4696 44.4322 42.9068 44.9716 42.9068H50.8958L53.6004 44.0138C54.2766 44.2905 54.7136 44.9438 54.7136 45.6783V48.8753Z" fill="#A986B0"/>
</g>
<defs>
<clipPath id="clip0">
<rect width="33.3333" height="33.3333" fill="white" transform="translate(23.3333 23.3333)"/>
</clipPath>
</defs>
</svg>
