<svg width="80" height="80" viewBox="0 0 80 80" fill="none" xmlns="http://www.w3.org/2000/svg">
<circle cx="40" cy="40" r="39" stroke="#A986B0" stroke-width="2"/>
<g clip-path="url(#clip0)">
<path d="M34.7701 55.8682C36.5483 56.2788 38.2278 56.6667 40.7345 56.6667C45.5741 56.6667 48.3476 55.0347 51.7374 52.7292L56.6686 49.3754L56.1319 48.5703C54.8163 46.597 52.3317 45.9307 50.2725 46.7895C49.1264 43.7055 46.283 41.4801 42.9713 41.0997C43.164 38.4526 44.1843 35.9216 45.8566 33.933C47.7066 35.1363 50.2707 34.9798 51.9637 33.2868C53.9101 31.3404 54.9819 28.727 54.9819 25.9279V23.3333H52.3873C49.6268 23.3333 47.024 24.4158 45.0584 26.3815C43.3661 28.0737 43.1858 30.6768 44.4592 32.5607C43.3934 33.801 42.55 35.2278 41.9611 36.762C41.3722 35.2278 40.5288 33.8009 39.463 32.5607C40.0032 31.7615 40.294 30.8202 40.294 29.8342C40.294 28.5299 39.7861 27.3037 38.8638 26.3815C36.8983 24.4158 34.2955 23.3333 31.5349 23.3333H28.9403V25.9279C28.9403 28.7271 30.0122 31.3405 31.9586 33.2868C33.6516 34.9799 36.2156 35.1365 38.0657 33.9331C39.7381 35.9219 40.7584 38.4531 40.9511 41.1004C38.7109 41.3581 36.6599 42.4656 35.213 44.2003C34.1884 43.5964 33.3297 43.2376 32.4386 43.1815C30.9867 43.0898 29.6628 43.8454 27.9946 44.9479H23.3414V54.7135H24.3179C29.7708 54.7135 32.4268 55.327 34.7701 55.8682ZM46.4394 27.7626C48.0362 26.1658 50.1485 25.2865 52.3874 25.2865H53.0289V25.9279C53.0289 28.2053 52.1601 30.3283 50.5827 31.9058C49.6824 32.806 48.3376 32.9962 47.2488 32.4775L50.5826 29.1437L49.2016 27.7626L45.8677 31.0965C45.3491 30.0077 45.5392 28.6628 46.4394 27.7626ZM38.0546 31.0965L34.7207 27.7626L33.3396 29.1436L36.6735 32.4775C35.5847 32.9961 34.2399 32.8059 33.3396 31.9057C31.7622 30.3283 30.8935 28.2053 30.8935 25.9279V25.2865H31.5349C33.7738 25.2865 35.8861 26.1658 37.4828 27.7626C38.383 28.6628 38.5733 30.0077 38.0546 31.0965ZM41.9612 42.9948C44.9964 42.9948 47.6767 44.9838 48.556 47.8037C47.8735 48.2113 47.1636 48.5639 46.4388 48.8548C45.6784 47.1068 43.9387 45.9245 41.9612 45.9245L38.5202 45.9251C38.0798 45.9251 37.6519 45.7922 37.2826 45.542C37.1429 45.4473 37.0067 45.3553 36.8733 45.2656C38.1614 43.8294 40.0013 42.9948 41.9612 42.9948ZM25.2945 46.901H28.585C29.5731 46.2792 31.1567 45.0581 32.316 45.1308C33.2181 45.1875 34.3804 45.9349 36.1872 47.159C36.881 47.629 37.6877 47.8775 38.5201 47.8775L41.9612 47.877C43.0819 47.877 44.0754 48.5102 44.5666 49.4633C43.4494 49.7426 42.3277 49.8745 41.2505 49.8437C39.7829 49.8016 38.3326 49.5449 36.9398 49.0807L36.4106 48.9042L35.793 50.7572L36.3222 50.9335C38.0996 51.526 39.9365 51.8011 41.5547 51.8011C44.549 51.801 47.7851 50.7476 50.4907 48.8827C51.5512 48.1518 52.897 48.2441 53.8331 48.9418L50.639 51.1142C46.907 53.6525 44.706 54.7135 40.7345 54.7135C38.4504 54.7135 36.9486 54.3667 35.2097 53.9651C32.9091 53.4338 30.3202 52.8358 25.2945 52.767V46.901Z" fill="#A986B0"/>
</g>
<defs>
<clipPath id="clip0">
<rect width="33.3333" height="33.3333" fill="white" transform="translate(23.3333 23.3333)"/>
</clipPath>
</defs>
</svg>
