<svg width="20" height="16" viewBox="0 0 20 16" fill="none" xmlns="http://www.w3.org/2000/svg">
<path d="M19.0022 14.7894H5.62833C5.07712 14.7894 4.63037 14.3426 4.63037 13.7914C4.63037 13.2402 5.07712 12.7935 5.62833 12.7935H19.0019C19.5531 12.7935 19.9999 13.2402 19.9999 13.7914C19.9999 14.3426 19.5534 14.7894 19.0022 14.7894Z" fill="#BDBDBD"/>
<path d="M19.0022 8.52521H5.62833C5.07712 8.52521 4.63037 8.07846 4.63037 7.52725C4.63037 6.97605 5.07712 6.5293 5.62833 6.5293H19.0019C19.5531 6.5293 19.9999 6.97605 19.9999 7.52725C20.0002 8.07846 19.5534 8.52521 19.0022 8.52521Z" fill="#BDBDBD" />
<path d="M19.0022 2.26104H5.62833C5.07712 2.26104 4.63037 1.81429 4.63037 1.26309C4.63037 0.711887 5.07712 0.265137 5.62833 0.265137H19.0019C19.5531 0.265137 19.9999 0.711887 19.9999 1.26309C19.9999 1.81429 19.5534 2.26104 19.0022 2.26104Z" fill="#BDBDBD"/>
<path d="M1.34025 2.6805C2.08045 2.6805 2.6805 2.08045 2.6805 1.34025C2.6805 0.600052 2.08045 0 1.34025 0C0.600051 0 0 0.600052 0 1.34025C0 2.08045 0.600051 2.6805 1.34025 2.6805Z" fill="#BDBDBD"/>
<path d="M1.34025 8.86752C2.08045 8.86752 2.6805 8.26746 2.6805 7.52726C2.6805 6.78706 2.08045 6.18701 1.34025 6.18701C0.600051 6.18701 0 6.78706 0 7.52726C0 8.26746 0.600051 8.86752 1.34025 8.86752Z" fill="#BDBDBD"/>
<path d="M1.34025 15.0545C2.08045 15.0545 2.6805 14.4545 2.6805 13.7143C2.6805 12.9741 2.08045 12.374 1.34025 12.374C0.600051 12.374 0 12.9741 0 13.7143C0 14.4545 0.600051 15.0545 1.34025 15.0545Z" fill="#BDBDBD"/>
</svg>
