<svg width="92" height="92" viewBox="0 0 92 92" fill="none" xmlns="http://www.w3.org/2000/svg">
<path d="M46 92C20.6348 92 0 71.3643 0 46C0 20.6357 20.6348 0 46 0C71.3652 0 92 20.6357 92 46C92 71.3643 71.3652 92 46 92Z" fill="#B0BB1D"/>
<path d="M59.5382 33.4389C60.8735 32.1037 63.0383 32.1037 64.3736 33.4389C65.7088 34.7742 65.7088 36.9391 64.3736 38.2743L43.8589 58.789C42.5236 60.1243 40.3587 60.1243 39.0235 58.789L27.6264 47.3919C26.2912 46.0567 26.2912 43.8918 27.6264 42.5566C28.9617 41.2213 31.1266 41.2213 32.4618 42.5566L41.4412 51.536L59.5382 33.4389Z" fill="white"/>
</svg>
