<svg width="20" height="20" viewBox="0 0 20 20" fill="none" xmlns="http://www.w3.org/2000/svg">
<path d="M7.47024 13.9786C8.29737 13.9693 9.11061 13.8446 9.889 13.6068C10.6962 13.3602 11.4448 12.9988 12.1139 12.5326C13.1329 11.8225 13.9579 10.9179 14.5663 9.84379C14.6053 9.76732 14.6445 9.68757 14.6877 9.59933C14.8954 9.17564 15.0861 8.71964 15.239 8.28056C15.2764 8.17322 15.3095 8.04585 15.3444 7.91076C15.445 7.52306 15.5775 7.01217 15.9441 6.57284L15.7806 5.01723C15.7486 4.71256 15.7875 4.38772 15.8902 4.10255C16.0372 3.69411 16.3133 3.37878 16.6674 3.21471C16.7796 3.1627 16.9018 3.13581 17.0254 3.13581C17.0316 3.13581 17.0378 3.13587 17.044 3.13602C17.0718 3.13664 17.2317 3.14107 17.4596 3.16551C17.549 2.62464 17.6475 2.0286 17.6572 1.96969C17.4488 1.25958 16.0429 0.819818 15.976 0.799316C15.7243 0.842832 15.4305 1.1283 15.354 1.59165L15.0301 3.55155L15.0244 3.55376C15.0218 3.55476 15.0193 3.55574 15.0167 3.55666L15.0135 3.55789C14.9766 3.57271 14.9328 3.591 14.8887 3.61357C14.4858 3.81965 14.2706 4.19367 14.0624 4.55535C13.9873 4.68592 13.9096 4.82086 13.8251 4.94342C13.5418 5.3542 13.215 5.77159 12.8798 6.15046C12.8075 6.23223 12.7423 6.30574 12.6765 6.37766C11.71 7.35108 10.5612 8.07763 9.26183 8.53742C7.37719 9.20417 5.24492 9.20157 3.25785 8.53008C3.13195 8.48752 3.00523 8.44177 2.88122 8.39402C2.74516 8.34164 2.57582 8.27648 2.39524 8.21542C2.08301 8.10989 1.68365 7.99622 1.29833 7.99622C1.05976 7.99622 0.826576 8.0398 0.622664 8.15574C0.447024 8.25563 0.303681 8.40402 0.196637 8.5968C-0.224451 9.35479 0.100918 9.97204 0.515279 10.526C0.891935 11.0297 1.32324 11.4727 1.79726 11.8427C2.70428 12.5513 3.71584 13.097 4.80384 13.4647C5.67672 13.7597 6.57354 13.9307 7.47024 13.9786Z" fill="#828282"/>
<path d="M19.1914 6.78797C19.1914 6.78797 18.9776 4.75413 18.9695 4.67696C18.6823 4.20887 17.815 4.05769 17.3418 4.00945C17.3383 4.00908 17.3347 4.0087 17.3312 4.00836C17.3276 4.008 17.3242 4.00768 17.3206 4.00734C17.1426 3.9899 17.0255 3.9873 17.0255 3.9873C16.6999 4.13814 16.593 4.59919 16.6276 4.92809L16.8346 6.89764C16.8324 6.89921 16.8304 6.90076 16.8282 6.90226L16.8252 6.90445C16.7933 6.92874 16.7557 6.95812 16.7187 6.99199C16.3827 7.29969 16.2739 7.71895 16.1688 8.12441C16.1311 8.26996 16.0921 8.42046 16.0432 8.56067C15.8792 9.03145 15.6749 9.5202 15.4524 9.97407C15.4046 10.0717 15.3613 10.1598 15.3167 10.2469C15.053 10.7147 14.752 11.1533 14.4157 11.5613C14.4017 11.5783 14.3877 11.5953 14.3736 11.6122C14.3588 11.63 14.3437 11.6476 14.3287 11.6652C13.8271 12.2552 13.2496 12.7791 12.6007 13.2312C11.1077 14.2715 9.26903 14.831 7.37165 14.831C7.187 14.831 7.00217 14.8257 6.81667 14.815C6.68423 14.8074 6.55008 14.7969 6.41789 14.7838C6.27259 14.7694 6.09176 14.7514 5.90151 14.7405C5.7966 14.7345 5.68287 14.73 5.56467 14.73C5.08033 14.73 4.51954 14.8051 4.16847 15.1563C4.02424 15.3006 3.92443 15.4834 3.87187 15.6996C3.66555 16.548 4.14542 17.0597 4.69471 17.4861C5.19223 17.8724 5.72645 18.1856 6.28247 18.4169C7.34608 18.86 8.46734 19.1181 9.61511 19.1841C9.80948 19.1952 10.0037 19.2008 10.197 19.2008C12.4493 19.2008 14.6131 18.4474 16.3448 17.0494C19.0965 14.8284 20.4466 11.2855 19.8682 7.80323C19.7992 7.38815 19.5535 7.02033 19.1914 6.78797Z" fill="#828282"/>
</svg>
