<svg width="20" height="20" viewBox="0 0 20 20" fill="none" xmlns="http://www.w3.org/2000/svg">
<path d="M18.4985 8.86617C18.9833 8.31887 19.2335 7.63085 19.2335 6.89591C19.2335 5.25402 17.8887 3.90925 16.2468 3.90925C15.9497 3.90925 15.6526 3.95616 15.3868 4.03434C15.4493 3.78415 15.4806 3.53396 15.4806 3.28377C15.4806 1.46988 14.0107 0 12.1968 0C11.1023 0 10.0702 0.547294 9.47601 1.45424C8.8818 0.82876 8.05305 0.469109 7.19301 0.469109C5.53549 0.469109 4.17507 1.75134 4.08125 3.39322C2.97103 3.73724 2.18918 4.76928 2.18918 5.94205C2.18918 6.28607 2.25173 6.61444 2.37682 6.94282C1.0164 7.20865 0 8.42833 0 9.8513C0 11.4932 1.32914 12.8223 2.97103 12.8223H2.98666C3.14303 13.9169 4.12816 14.8551 5.31657 14.8551C6.28607 14.8551 7.11483 14.2766 7.47448 13.4322C8.78798 14.8551 8.89744 16.9818 8.89744 19.2335C8.89744 19.3273 8.95999 19.3899 9.05381 19.3899H11.8841C11.931 19.3899 11.9623 19.3742 11.9936 19.3429C12.0248 19.3117 12.0405 19.2648 12.0405 19.2335C12.0405 19.2022 11.9779 15.9497 13.0882 14.4798C13.3071 14.5268 13.526 14.558 13.7449 14.558C14.6049 14.558 15.4337 14.1984 16.0279 13.5573C16.4345 13.7918 16.8879 13.9169 17.357 13.9169C18.8113 13.9169 19.9997 12.7285 19.9997 11.2743C20.0153 10.2266 19.4211 9.304 18.4985 8.86617ZM10.4924 14.8551C10.2266 14.0107 9.64802 12.7129 9.02254 12.0405C9.60111 12.0248 10.1797 11.8372 10.6488 11.4932C10.6644 12.103 10.8521 12.666 11.1804 13.1507C10.8833 13.6042 10.6331 14.3391 10.4924 14.8551Z" fill="#a986b0"/>
</svg>
