<svg width="21" height="19" viewBox="0 0 21 19" fill="none" xmlns="http://www.w3.org/2000/svg">
<path d="M20.6861 2.25865C19.3332 0.632502 17.3962 0.175875 15.5958 1.5784C15.5075 1.02256 15.2793 0.49108 14.9134 0L13.9246 0.736681C14.7179 1.80128 14.351 2.87536 14.0363 3.45237C11.7639 2.27776 6.20493 1.58849 3.62829 8.4269C2.58686 11.1908 0.5869 12.0078 0.131216 13.1902C-1.0536 16.2645 5.99879 20.6049 12.6735 16.316C18.664 12.4666 17.8725 6.47038 15.0665 4.13265C15.1632 3.96342 15.2658 3.75933 15.3572 3.52624C17.3209 5.24836 19.3867 4.75473 21 2.63595L20.6861 2.25865Z" fill="#828282"/>
</svg>
