<svg width="18" height="20" viewBox="0 0 18 20" fill="none" xmlns="http://www.w3.org/2000/svg">
<path d="M15.4148 5.84193C15.298 5.95396 15.1425 6.0822 14.9687 6.19837C14.9219 6.22966 14.8905 6.27989 14.8843 6.33587C14.693 8.05923 12.9879 8.90391 11.2606 8.43571C11.1962 8.41825 11.1269 8.43583 11.0785 8.48177C9.80062 9.69395 8.15683 9.65317 6.92155 8.48196C6.87312 8.43602 6.80386 8.41825 6.7394 8.43575C4.98624 8.91169 3.30526 8.03657 3.11597 6.33575C3.10972 6.2797 3.07815 6.22954 3.03132 6.1981C2.85839 6.08193 2.6994 5.95075 2.58464 5.84146C2.50487 5.76552 2.37726 5.7713 2.30448 5.85396C1.36077 6.92532 0.917725 8.15528 0.917725 9.34845C0.917725 12.7097 4.43733 20 9.00015 20C13.5614 20 17.0826 12.7123 17.0826 9.34845C17.0826 8.15626 16.6402 6.92599 15.6957 5.85372C15.6226 5.77075 15.4946 5.7654 15.4148 5.84193ZM12.7501 10.625C12.7501 10.2784 13.0312 10 13.3751 10C13.7191 10 14.0001 10.2783 14.0001 10.625V10.9375C14.0001 11.2828 13.7205 11.5625 13.3751 11.5625C13.0298 11.5625 12.7501 11.2828 12.7501 10.9375V10.625ZM10.5626 13.75C10.5626 13.4034 10.8437 13.125 11.1876 13.125C11.5316 13.125 11.8126 13.4033 11.8126 13.75V14.0625C11.8126 14.4078 11.533 14.6875 11.1876 14.6875C10.8423 14.6875 10.5626 14.4078 10.5626 14.0625V13.75ZM8.37515 10.625C8.37515 10.2784 8.65616 10 9.00015 10C9.34405 10 9.62515 10.2783 9.62515 10.625V10.9375C9.62515 11.2828 9.34546 11.5625 9.00015 11.5625C8.65483 11.5625 8.37515 11.2828 8.37515 10.9375V10.625ZM8.37515 16.25C8.37515 15.9034 8.65616 15.625 9.00015 15.625C9.34405 15.625 9.62515 15.9033 9.62515 16.25V16.5625C9.62515 16.9078 9.34546 17.1875 9.00015 17.1875C8.65483 17.1875 8.37515 16.9078 8.37515 16.5625V16.25ZM6.18765 13.75C6.18765 13.4034 6.46866 13.125 6.81265 13.125C7.15655 13.125 7.43765 13.4033 7.43765 13.75V14.0625C7.43765 14.4078 7.15796 14.6875 6.81265 14.6875C6.46733 14.6875 6.18765 14.4078 6.18765 14.0625V13.75ZM4.00015 10.625C4.00015 10.2784 4.28116 10 4.62515 10C4.96905 10 5.25015 10.2783 5.25015 10.625V10.9375C5.25015 11.2828 4.97046 11.5625 4.62515 11.5625C4.27983 11.5625 4.00015 11.2828 4.00015 10.9375V10.625Z" fill="#828282"/>
<path d="M4.41626 5.48242C4.39989 5.55344 4.38665 5.61336 4.37407 5.69531C4.22798 6.63594 4.7354 7.00391 4.97056 7.12148C5.75142 7.51172 6.59712 7.25156 7.22251 6.87734C8.26653 8.5434 9.73263 8.54363 10.778 6.87734C11.4034 7.25156 12.2491 7.51172 13.0299 7.12148C13.2651 7.00391 13.7725 6.63594 13.626 5.69492C13.6146 5.61648 13.6005 5.55309 13.5842 5.48242C14.2821 5.26023 14.9377 4.79512 14.9377 4.0625C14.9377 3.36367 14.2073 2.99844 13.9674 2.87852C12.6971 2.24352 11.0677 2.01027 10.0274 1.92461C10.0236 1.91145 10.0201 1.89773 10.0163 1.88477C9.46704 0.0269531 8.13384 0 8.06274 0C7.71755 0 7.43774 0.279805 7.43774 0.625C7.43774 0.970195 7.71755 1.25 8.06274 1.25C8.06274 1.25 8.05493 1.25078 8.04087 1.24961C8.07134 1.25352 8.2647 1.28828 8.46665 1.52812C8.9097 2.05133 8.99856 3.03852 9.00021 3.72996C9.00103 4.06902 8.74017 4.36066 8.40142 4.37449C8.04419 4.38902 7.75024 4.10398 7.75024 3.75C7.75024 3.2341 7.70474 2.62574 7.53325 2.12316C7.50321 2.03516 7.41645 1.97973 7.32415 1.99102C6.32782 2.11316 5.06216 2.36379 4.0331 2.87852C3.79321 2.99844 3.06274 3.36367 3.06274 4.0625C3.06274 4.79531 3.71872 5.26035 4.41626 5.48242Z" fill="#828282"/>
</svg>
