<svg width="17" height="20" viewBox="0 0 17 20" fill="none" xmlns="http://www.w3.org/2000/svg">
<path d="M15.9215 8.9622C15.3874 7.20011 14.1827 6.06233 12.4374 5.67178C11.9832 5.57002 11.5386 5.51849 11.116 5.51849C10.0495 5.51849 9.24052 5.8457 8.65517 6.2304C8.65766 6.03405 8.64799 5.61536 8.55703 5.01872C8.63247 5.02369 8.74942 5.02927 8.89935 5.02927C9.64283 5.02927 11.0271 4.89251 11.9433 3.9764C13.1935 2.72616 12.9876 0.587566 12.9782 0.497083L12.9332 0.0630086L12.4991 0.0180025C12.4814 0.0161888 12.3184 0 12.0638 0C11.3202 0 9.93604 0.136832 9.01999 1.05294C8.45533 1.61753 8.18819 2.36309 8.06533 3.01958C7.79744 2.21726 7.40998 1.30148 6.84835 0.305303C6.70265 0.046887 6.37477 -0.0446703 6.11629 0.101163C5.85767 0.246929 5.76632 0.574668 5.91208 0.833219C7.54366 3.72691 7.58483 5.90246 7.57986 6.25142C6.99418 5.87055 6.18366 5.56625 5.11413 5.56625C5.11406 5.56625 5.11386 5.56625 5.11373 5.56625C4.69134 5.56625 4.24692 5.59393 3.79256 5.69563C2.0474 6.08618 0.842575 7.21207 0.308547 8.97416C-0.185379 10.604 0.00465453 12.4378 0.250979 13.694C0.512687 15.0288 1.21391 16.5238 2.12686 17.6978C2.64746 18.3673 3.21292 18.9014 3.80761 19.2884C4.53395 19.7611 5.28576 20 6.04206 20C6.76754 20 7.46184 19.7826 8.11503 19.3531C8.76836 19.7826 9.4626 19.9995 10.1881 19.9995C10.9444 19.9995 11.6962 19.7597 12.4227 19.2871C13.0173 18.9002 13.5828 18.3644 14.1033 17.695C15.0163 16.521 15.7175 15.0232 15.9793 13.6881C16.2255 12.4316 16.4153 10.5919 15.9215 8.9622ZM15.4072 9.11805C15.1847 8.38404 14.832 7.77216 14.3609 7.29348C14.832 7.77216 15.1847 8.38411 15.4072 9.11805Z" fill="#828282"/>
</svg>
