<svg width="18" height="20" viewBox="0 0 18 20" fill="none" xmlns="http://www.w3.org/2000/svg">
<path d="M16.6765 1.41894C16.6765 1.02655 16.5032 0.677139 16.1883 0.435146C15.8815 0.199209 15.5028 0.115498 15.1223 0.199326L14.3181 0.376592L12.6718 0.0137402C12.5887 -0.00458008 12.5026 -0.00458008 12.4196 0.0137402L10.7732 0.376592L9.12687 0.0137402C9.04378 -0.00458008 8.95772 -0.00458008 8.87464 0.0137402L7.22827 0.376592L5.58194 0.0137402C5.49886 -0.00458008 5.4128 -0.00458008 5.32972 0.0137402L3.68335 0.376592L2.87917 0.199365C2.49847 0.115498 2.12003 0.199248 1.81312 0.435186C1.49831 0.677217 1.32495 1.02659 1.32495 1.41897V2.7344H16.6765V1.41894Z" fill="#828282"/>
<path d="M1.32503 18.5812C1.32503 18.9735 1.49839 19.3229 1.81323 19.565C2.12011 19.8009 2.4987 19.8847 2.87925 19.8008L3.68343 19.6235L5.32976 19.9864C5.41284 20.0047 5.4989 20.0047 5.58198 19.9864L7.22831 19.6235L8.87464 19.9864C8.95772 20.0047 9.04378 20.0047 9.12686 19.9864L10.7732 19.6235L12.4195 19.9864C12.461 19.9955 12.5033 20.0001 12.5457 20.0001C12.588 20.0001 12.6302 19.9956 12.6718 19.9864L14.3181 19.6235L15.1223 19.8008C15.5029 19.8846 15.8814 19.8008 16.1883 19.565C16.5032 19.3229 16.6765 18.9736 16.6765 18.5812V17.2627H1.32495V18.5812H1.32503Z" fill="#828282"/>
<path d="M11.4227 8.50049C10.8897 8.50049 10.3917 8.73619 10.0537 9.13936L11.7839 12.038C12.5968 11.8706 13.2098 11.1494 13.2098 10.2876C13.2098 9.30221 12.4081 8.50049 11.4227 8.50049Z" fill="#828282"/>
<path d="M8.88636 9.47002C8.30694 8.44498 7.6269 7.92529 6.86515 7.92529C5.72187 7.92529 4.79175 8.85545 4.79175 9.99873C4.79175 11.142 5.7219 12.0721 6.86515 12.0721H10.4393L8.89331 9.48201C8.89093 9.47803 8.88858 9.47404 8.88636 9.47002Z" fill="#828282"/>
<path d="M16.8644 3.90625H1.13546C0.62753 6.18 0.388038 8.14004 0.387452 10.0012C0.386827 11.8569 0.626007 13.8152 1.1346 16.0907H16.8646C17.3724 13.814 17.6118 11.8559 17.6124 10.0016C17.613 8.14461 17.3736 6.18453 16.8644 3.90625ZM11.4226 13.2466C11.4049 13.2466 6.86515 13.2439 6.86515 13.2439C5.0757 13.2439 3.61987 11.7881 3.61987 9.99867C3.61987 8.20922 5.07573 6.75336 6.86515 6.75336C7.82237 6.75336 8.68585 7.22594 9.39796 8.12949C9.94034 7.61984 10.6598 7.32859 11.4226 7.32859C13.0542 7.32859 14.3816 8.65598 14.3816 10.2876C14.3816 11.9192 13.0542 13.2466 11.4226 13.2466Z" fill="#828282"/>
</svg>
