<svg width="79" height="20" viewBox="0 0 79 20" fill="none" xmlns="http://www.w3.org/2000/svg">
<path d="M60.4971 5.21741H56.2735C56.025 5.21741 55.7766 5.46585 55.6523 5.7143L53.9132 16.646C53.9132 16.8944 54.0374 17.0187 54.2859 17.0187H56.5219C56.7703 17.0187 56.8946 16.8944 56.8946 16.646L57.3915 13.5404C57.3915 13.2919 57.6399 13.0435 58.0126 13.0435H59.379C62.2362 13.0435 63.8511 11.677 64.2238 8.94412C64.4722 7.8261 64.2238 6.83232 63.7269 6.2112C62.9815 5.59008 61.8635 5.21741 60.4971 5.21741ZM60.994 9.31679C60.7455 10.8075 59.6275 10.8075 58.5095 10.8075H57.7641L58.261 7.95033C58.261 7.8261 58.3853 7.70188 58.6337 7.70188H58.8822C59.6275 7.70188 60.3728 7.70188 60.7455 8.19877C60.994 8.323 60.994 8.69567 60.994 9.31679Z" fill="#139AD6"/>
<path d="M30.062 5.21741H25.8384C25.59 5.21741 25.3415 5.46585 25.2173 5.7143L23.4781 16.646C23.4781 16.8944 23.6024 17.0187 23.8508 17.0187H25.8384C26.0868 17.0187 26.3353 16.7702 26.4595 16.5218L26.9564 13.5404C26.9564 13.2919 27.2049 13.0435 27.5775 13.0435H28.944C31.8011 13.0435 33.416 11.677 33.7887 8.94412C34.0372 7.8261 33.7887 6.83232 33.2918 6.2112C32.5465 5.59008 31.5527 5.21741 30.062 5.21741ZM30.5589 9.31679C30.3104 10.8075 29.1924 10.8075 28.0744 10.8075H27.4533L27.9502 7.95033C27.9502 7.8261 28.0744 7.70188 28.3229 7.70188H28.5713C29.3167 7.70188 30.062 7.70188 30.4347 8.19877C30.5589 8.323 30.6831 8.69567 30.5589 9.31679Z" fill="#263B80"/>
<path d="M42.857 9.19254H40.8695C40.7452 9.19254 40.4968 9.31676 40.4968 9.44099L40.3726 10.0621L40.2483 9.81366C39.7514 9.19254 38.8819 8.94409 37.8881 8.94409C35.6521 8.94409 33.6645 10.6832 33.2918 13.0435C33.0434 14.2857 33.416 15.4037 34.0372 16.1491C34.6583 16.8944 35.5278 17.1429 36.6458 17.1429C38.5092 17.1429 39.503 16.0248 39.503 16.0248L39.3788 16.646C39.3788 16.8944 39.503 17.0186 39.7514 17.0186H41.6148C41.8632 17.0186 42.1117 16.7702 42.2359 16.5217L43.3539 9.56521C43.2297 9.44099 42.9813 9.19254 42.857 9.19254ZM39.9999 13.1677C39.7514 14.2857 38.8819 15.1553 37.6396 15.1553C37.0185 15.1553 36.5216 14.9068 36.2732 14.6584C36.0247 14.2857 35.9005 13.7888 35.9005 13.1677C36.0247 12.0497 37.0185 11.1801 38.1365 11.1801C38.7577 11.1801 39.1303 11.4286 39.503 11.677C39.8757 12.0497 39.9999 12.6708 39.9999 13.1677Z" fill="#263B80"/>
<path d="M73.1676 9.19254H71.18C71.0558 9.19254 70.8073 9.31676 70.8073 9.44099L70.6831 10.0621L70.5589 9.81366C70.062 9.19254 69.1924 8.94409 68.1986 8.94409C65.9626 8.94409 63.975 10.6832 63.6024 13.0435C63.3539 14.2857 63.7266 15.4037 64.3477 16.1491C64.9688 16.8944 65.8384 17.1429 66.9564 17.1429C68.8198 17.1429 69.8135 16.0248 69.8135 16.0248L69.6893 16.646C69.6893 16.8944 69.8135 17.0186 70.062 17.0186H71.9253C72.1738 17.0186 72.4222 16.7702 72.5465 16.5217L73.6645 9.56521C73.5402 9.44099 73.416 9.19254 73.1676 9.19254ZM70.3104 13.1677C70.062 14.2857 69.1924 15.1553 67.9502 15.1553C67.3291 15.1553 66.8322 14.9068 66.5837 14.6584C66.3353 14.2857 66.2111 13.7888 66.2111 13.1677C66.3353 12.0497 67.3291 11.1801 68.4471 11.1801C69.0682 11.1801 69.4409 11.4286 69.8135 11.677C70.3104 12.0497 70.4347 12.6708 70.3104 13.1677Z" fill="#139AD6"/>
<path d="M53.6646 9.1925H51.5528C51.3043 9.1925 51.1801 9.31673 51.0559 9.44095L48.323 13.6646L47.0807 9.6894C46.9565 9.44095 46.8323 9.31673 46.4596 9.31673H44.472C44.2236 9.31673 44.0994 9.56518 44.0994 9.81362L46.3354 16.3975L44.2236 19.3788C44.0994 19.6273 44.2236 20 44.472 20H46.4596C46.7081 20 46.8323 19.8757 46.9565 19.7515L53.7888 9.93785C54.1615 9.56518 53.913 9.1925 53.6646 9.1925Z" fill="#263B80"/>
<path d="M75.5279 5.59003L73.7888 16.7702C73.7888 17.0186 73.913 17.1428 74.1615 17.1428H75.9006C76.1491 17.1428 76.3975 16.8944 76.5217 16.6459L78.2609 5.71425C78.2609 5.4658 78.1366 5.34158 77.8882 5.34158H75.9006C75.7764 5.21736 75.6522 5.34158 75.5279 5.59003Z" fill="#139AD6"/>
<path d="M14.2857 1.49068C13.4162 0.496893 11.8012 0 9.56522 0H3.35404C2.98137 0 2.6087 0.372669 2.48447 0.74534L0 17.0186C0 17.3913 0.248447 17.6398 0.496894 17.6398H4.34783L5.34162 11.5528V11.8012C5.46584 11.4286 5.83851 11.0559 6.21118 11.0559H8.07454C11.677 11.0559 14.4099 9.56522 15.2795 5.46584C15.2795 5.34161 15.2795 5.21739 15.2795 5.09317C15.1553 5.09317 15.1553 5.09317 15.2795 5.09317C15.4037 3.47826 15.1553 2.48447 14.2857 1.49068Z" fill="#263B80"/>
<path d="M15.1553 5.09314C15.1553 5.21736 15.1553 5.34159 15.1553 5.46581C14.2858 9.68941 11.5529 11.0559 7.95038 11.0559H6.08702C5.71435 11.0559 5.34168 11.4285 5.21746 11.8012L3.97522 19.3789C3.97522 19.6273 4.09944 19.8758 4.47211 19.8758H7.70193C8.0746 19.8758 8.44727 19.6273 8.44727 19.2546V19.1304L9.06839 15.2795V15.031C9.06839 14.6584 9.44106 14.4099 9.81373 14.4099H10.3106C13.4162 14.4099 15.9007 13.1677 16.5218 9.44097C16.7703 7.95028 16.646 6.58382 15.9007 5.71426C15.7765 5.46581 15.528 5.21736 15.1553 5.09314Z" fill="#139AD6"/>
<path d="M14.2857 4.72045C14.1614 4.72045 14.0372 4.59622 13.913 4.59622C13.7888 4.59622 13.6645 4.59622 13.5403 4.472C13.0434 4.34778 12.5465 4.34778 11.9254 4.34778H7.08068C6.95646 4.34778 6.83224 4.34778 6.70801 4.472C6.45957 4.59622 6.33534 4.84467 6.33534 5.09312L5.34155 11.5527V11.8012C5.46578 11.4285 5.83845 11.0559 6.21112 11.0559H8.07447C11.677 11.0559 14.4099 9.56517 15.2794 5.46579C15.2794 5.34157 15.2794 5.21734 15.4037 5.09312C15.1552 4.96889 15.031 4.84467 14.7825 4.84467C14.4099 4.72045 14.4099 4.72045 14.2857 4.72045Z" fill="#232C65"/>
</svg>
