<svg width="18" height="16" viewBox="0 0 18 16" fill="none" xmlns="http://www.w3.org/2000/svg">
<path d="M13.0519 6.05041L9.68803 1.00454C9.5351 0.851636 9.30577 0.69873 9.07641 0.69873C8.84705 0.69873 8.6177 0.775183 8.46479 1.00454L5.10088 6.05041H1.43115C0.972436 6.05041 0.666626 6.35622 0.666626 6.81494C0.666626 6.89139 0.666626 6.96784 0.666626 7.0443L2.57794 14.1544C2.73085 14.766 3.34247 15.3012 4.03054 15.3012H13.9694C14.6575 15.3012 15.2691 14.8425 15.422 14.1544L17.3333 7.0443C17.3333 6.96784 17.3333 6.89139 17.3333 6.81494C17.3333 6.35622 17.0275 6.05041 16.5688 6.05041H13.0519ZM6.78283 6.05041L9.07641 2.6865L11.37 6.05041H6.78283ZM9.07641 12.1666C8.23543 12.1666 7.54736 11.4785 7.54736 10.6376C7.54736 9.79659 8.23543 9.10852 9.07641 9.10852C9.91739 9.10852 10.6055 9.79659 10.6055 10.6376C10.6055 11.4785 9.91739 12.1666 9.07641 12.1666Z" fill="white"/>
</svg>
