<svg width="240" height="226" viewBox="0 0 240 226" fill="none" xmlns="http://www.w3.org/2000/svg">
<g clip-path="url(#clip0)">
<path d="M131.492 178.77H76.322V221.322H131.492V178.77Z" fill="#EBEBEB"/>
<path d="M117.672 221.02C117.598 221.02 117.534 211.533 117.534 199.837C117.534 188.135 117.598 178.653 117.672 178.653C117.746 178.653 117.81 188.135 117.81 199.837C117.81 211.538 117.751 221.02 117.672 221.02Z" fill="#E0E0E0"/>
<path d="M126.815 211.639H122.588V216.422H126.815V211.639Z" fill="#FAFAFA"/>
<path d="M99.423 178.881H93.1564V187.96H99.423V178.881Z" fill="#E0E0E0"/>
<path d="M99.423 212.115H93.1564V221.195H99.423V212.115Z" fill="#E0E0E0"/>
<path d="M231.604 168.101H162.036V221.757H231.604V168.101Z" fill="#EBEBEB"/>
<path d="M214.176 221.375C214.102 221.375 214.038 209.414 214.038 194.667C214.038 179.914 214.102 167.953 214.176 167.953C214.25 167.953 214.314 179.909 214.314 194.667C214.314 209.419 214.25 221.375 214.176 221.375Z" fill="#E0E0E0"/>
<path d="M225.708 209.541H220.374V215.569H225.708V209.541Z" fill="#FAFAFA"/>
<path d="M191.165 168.239H183.262V179.686H191.165V168.239Z" fill="#E0E0E0"/>
<path d="M191.165 210.145H183.262V221.592H191.165V210.145Z" fill="#E0E0E0"/>
<path d="M31.0045 169.68C33.8226 168.228 37.1333 168.038 40.2587 168.557C41.9379 168.832 43.6913 169.335 44.8302 170.596C45.9743 171.857 46.1915 174.076 44.8778 175.162C44.0991 175.809 43.0079 175.904 41.9962 175.893C39.5489 175.867 36.8367 175.432 34.8767 176.905C33.759 177.747 33.0174 179.141 31.6878 179.554C30.3847 179.956 28.9121 179.188 28.2182 178.012C27.5242 176.836 27.503 175.364 27.8262 174.034C27.8315 174.034 28.1705 171.142 31.0045 169.68Z" fill="#EBEBEB"/>
<path d="M24.5578 157.226C26.2794 159.684 29.6273 158.873 31.1793 157.369C32.7314 155.87 33.3883 153.693 33.9816 151.616C35.3429 146.875 36.7202 141.907 35.7084 137.075C35.4065 135.635 34.8662 134.194 33.8491 133.124C32.8374 132.054 31.2747 131.418 29.8497 131.794C28.1599 132.239 27.1164 133.892 26.3536 135.465C24.1235 140.084 22.9475 145.207 22.9263 150.34C22.921 152.734 23.2071 155.25 24.5578 157.226Z" fill="#EBEBEB"/>
<path d="M19.8274 160.754C21.6973 158.534 22.0522 155.298 21.2206 152.522C20.3889 149.741 18.5084 147.378 16.3419 145.45C13.8045 143.188 10.8169 141.424 7.60679 140.296C6.34606 139.851 5.01117 139.502 3.68157 139.629C2.34668 139.756 1.00649 140.439 0.386714 141.62C-0.534998 143.374 0.349634 145.498 1.30313 147.235C2.98234 150.292 4.89992 153.216 7.03999 155.971C8.76158 158.185 10.7268 160.373 13.349 161.374C15.9711 162.375 18.6885 162.258 20.0817 160.441" fill="#EBEBEB"/>
<path d="M24.4413 194.317C24.4731 194.317 24.526 193.92 24.5949 193.199C24.6743 192.384 24.775 191.366 24.8915 190.148C25.0346 188.866 25.22 187.341 25.5749 185.677C25.9298 184.019 26.486 182.224 27.2011 180.396C27.9427 178.584 28.8432 176.937 29.8974 175.618C30.9462 174.294 32.1593 173.335 33.3035 172.784C34.4424 172.222 35.4647 171.989 36.1746 171.889C36.8897 171.815 37.287 171.762 37.287 171.73C37.287 171.698 36.8897 171.693 36.1534 171.714C35.4277 171.762 34.3629 171.947 33.1605 172.493C31.9527 173.028 30.6655 174.002 29.5637 175.353C28.4565 176.699 27.5242 178.383 26.772 180.226C26.0463 182.081 25.4954 183.897 25.1564 185.593C24.8174 187.282 24.6638 188.829 24.5631 190.122C24.4678 191.414 24.4307 192.463 24.4095 193.189C24.3989 193.914 24.4095 194.317 24.4413 194.317Z" fill="#E0E0E0"/>
<path d="M24.6478 191.97C24.6637 191.97 24.6743 191.79 24.6796 191.451C24.6796 191.059 24.6796 190.572 24.6743 189.968C24.669 188.681 24.669 186.821 24.7379 184.522C24.8491 179.924 25.2464 174.977 26.0145 167.995C26.7402 161.432 27.7096 153.799 28.7372 148.835C28.9597 147.707 29.1769 146.69 29.3888 145.8C29.5901 144.91 29.7596 144.142 29.9238 143.517C30.0668 142.929 30.1781 142.452 30.2681 142.076C30.3423 141.742 30.3741 141.567 30.3582 141.562C30.3423 141.557 30.2787 141.726 30.1781 142.049C30.0668 142.42 29.9238 142.892 29.749 143.469C29.5583 144.084 29.3623 144.852 29.1398 145.736C28.9068 146.621 28.6631 147.638 28.4194 148.761C27.4024 153.258 26.3323 159.546 25.5589 166.538C24.7908 173.531 24.4465 179.898 24.4147 184.507C24.3882 186.811 24.4359 188.675 24.4942 189.963C24.5313 190.566 24.5631 191.054 24.5842 191.446C24.6107 191.795 24.6319 191.976 24.6478 191.97Z" fill="#E0E0E0"/>
<path d="M24.6796 179.692C24.7114 179.692 24.7061 179.141 24.669 178.145C24.6107 177.149 24.473 175.713 24.1923 173.949C23.8956 172.191 23.4824 170.104 22.8256 167.836C22.5448 166.798 21.8774 164.314 20.267 160.6C18.1482 155.568 15.2665 151.457 12.7609 148.91C12.1729 148.231 11.5161 147.744 10.997 147.267C10.7268 147.04 10.4884 146.812 10.2447 146.626C10.0011 146.457 9.7733 146.298 9.56141 146.155C8.73505 145.593 8.27419 145.292 8.2583 145.318C8.18414 145.419 10.107 146.547 12.5331 149.132C14.9487 151.706 17.7509 155.791 19.8539 160.781C21.0245 163.487 21.8456 165.898 22.423 167.948C23.0957 170.194 23.5407 172.26 23.8744 174.002C24.1923 175.745 24.3777 177.17 24.4889 178.155C24.5843 179.146 24.6478 179.697 24.6796 179.692Z" fill="#E0E0E0"/>
<path d="M11.9929 199.487L13.2219 216.343H34.8768L36.1057 199.487H11.9929Z" fill="#EBEBEB"/>
<path d="M38.6908 192.844H9.90051V199.487H38.6908V192.844Z" fill="#EBEBEB"/>
<path d="M9.90051 215.702V217.54H11.2513H38.214V215.702H9.90051Z" fill="#E0E0E0"/>
<path d="M12.5755 220.581L11.2513 217.339H37.181L35.6342 220.581H12.5755Z" fill="#E0E0E0"/>
<path d="M35.7031 204.996C35.7084 205.001 35.6713 205.054 35.6024 205.15C35.5177 205.266 35.4117 205.404 35.2793 205.579C34.972 205.971 34.5483 206.511 34.0186 207.194L33.9603 207.269L33.9073 207.194C33.1127 206.098 32.0533 204.631 30.8085 202.909H30.9886C30.0668 204.212 29.0392 205.669 27.9374 207.232L27.842 207.369L27.7361 207.242C26.6078 205.902 25.3894 204.445 24.1181 202.936L24.3247 202.93C24.2611 203.01 24.1923 203.094 24.1234 203.179C23.0004 204.588 21.9145 205.95 20.8868 207.237L20.7809 207.375L20.6802 207.232C19.5837 205.679 18.556 204.223 17.629 202.914L17.8091 202.925C16.3047 204.641 15.0281 206.093 14.0481 207.21L13.9793 207.285L13.9263 207.2C13.4284 206.368 13.0364 205.701 12.7503 205.224C12.6285 205.007 12.5278 204.837 12.4484 204.699C12.3795 204.578 12.353 204.514 12.3583 204.514C12.3636 204.509 12.406 204.567 12.4855 204.684C12.5755 204.816 12.6815 204.986 12.8192 205.192C13.1211 205.664 13.5343 206.315 14.0534 207.136L13.9369 207.126C14.901 205.997 16.1564 204.525 17.6343 202.793L17.7297 202.681L17.8144 202.798C18.752 204.106 19.785 205.552 20.8921 207.099L20.6855 207.094C21.7079 205.807 22.7938 204.44 23.9115 203.031C23.9804 202.946 24.0492 202.861 24.1128 202.782L24.2134 202.655L24.3194 202.782C25.5854 204.297 26.8038 205.754 27.9268 207.094L27.7255 207.104C28.8379 205.552 29.8761 204.106 30.8085 202.803L30.8985 202.676L30.9886 202.803C32.2069 204.546 33.2452 206.029 34.0238 207.136L33.9126 207.131C34.4635 206.469 34.9032 205.939 35.2263 205.558C35.3693 205.393 35.4859 205.261 35.5759 205.15C35.6554 205.039 35.6978 204.991 35.7031 204.996Z" fill="#F5F5F5"/>
<path d="M36.4077 199.376C36.4077 199.45 30.9833 199.508 24.2877 199.508C17.592 199.508 12.1677 199.45 12.1677 199.376C12.1677 199.302 17.592 199.243 24.2877 199.243C30.9833 199.243 36.4077 199.302 36.4077 199.376Z" fill="#F5F5F5"/>
<path d="M66.8929 27.0579C69.3773 30.0773 70.7599 33.9866 70.7175 37.8959C70.691 40.1313 70.2831 42.5945 71.5809 44.4115C72.5662 45.7887 74.3673 46.4827 75.1671 47.9765C76.1312 49.7722 75.3102 52.0447 75.9034 53.9941C76.7457 56.7592 79.9823 57.9193 81.9052 60.0753C83.5738 61.9505 84.1883 64.6891 83.5155 67.1046C82.8428 69.5202 80.9199 71.5437 78.5467 72.3595C77.2754 72.7991 75.8187 72.8945 74.6162 72.2959C73.3184 71.6496 72.5132 70.32 71.8617 69.0222C70.5798 66.469 59.3656 52.6698 58.7299 49.8888" fill="#263238"/>
<path d="M58.7353 23.8055C54.1479 23.0692 49.7407 26.1098 47.8072 30.3369C45.8737 34.5588 45.8207 39.3634 45.6777 44.009C45.5347 48.6493 45.2116 53.4963 42.8384 57.4957C41.334 60.033 39.0032 62.2525 38.6377 65.1819C38.3093 67.7987 39.6654 70.4367 39.2151 73.0376C38.8231 75.3048 37.0963 77.2701 37.1651 79.5691C37.2499 82.3342 40.0892 84.416 42.8543 84.4902C45.6194 84.5643 48.1992 83.1182 50.3657 81.3966C53.8831 78.6103 56.733 74.987 58.6135 70.9188" fill="#263238"/>
<path d="M51.1921 34.7388C50.5882 29.9025 54.0844 25.4846 58.9949 25.0132C63.6246 24.5735 67.7352 28.0167 68.4292 32.6147C69.0383 36.6458 69.5575 40.7141 69.5416 42.192C69.4833 46.6469 66.8771 48.3844 65.8229 48.9035C65.5793 49.0201 64.9171 49.1578 64.6523 49.1949C64.6364 49.1949 64.6258 49.2108 64.6258 49.232L65.6163 54.349C66.0666 57.7022 64.1967 60.6898 60.8489 61.1771C57.4905 61.6645 54.8683 59.09 54.3545 55.7369L51.1921 34.7388Z" fill="#FFBE9D"/>
<path d="M67.518 34.5694C67.4438 34.6753 66.8558 34.3575 66.1036 34.4687C65.3514 34.5694 64.8535 35.0408 64.7582 34.9561C64.7105 34.919 64.774 34.7442 64.9912 34.5323C65.2031 34.3204 65.5845 34.0926 66.0507 34.0291C66.5221 33.9655 66.9406 34.0767 67.1949 34.2198C67.4544 34.3681 67.5551 34.5217 67.518 34.5694Z" fill="#263238"/>
<path d="M60.8118 36.2009C60.7377 36.3069 60.1497 35.989 59.3975 36.1003C58.6453 36.2009 58.1473 36.6724 58.052 36.5876C58.0043 36.5505 58.0679 36.3757 58.2851 36.1638C58.4969 35.9519 58.8783 35.7242 59.3445 35.6606C59.8159 35.597 60.2344 35.7083 60.4887 35.8566C60.743 35.9996 60.8489 36.1532 60.8118 36.2009Z" fill="#263238"/>
<path d="M63.5611 40.2425C63.5505 40.2002 64.0061 40.0519 64.753 39.8453C64.9437 39.7976 65.1185 39.734 65.1344 39.5963C65.1608 39.448 65.0496 39.2573 64.9225 39.0454C64.6735 38.6057 64.4139 38.1449 64.1385 37.6628C63.042 35.6923 62.2209 34.0554 62.3004 34.013C62.3798 33.9707 63.3333 35.5333 64.4298 37.5039C64.6947 37.9912 64.949 38.4574 65.1926 38.9024C65.2986 39.109 65.4575 39.342 65.4045 39.644C65.3727 39.7976 65.2456 39.9194 65.1291 39.9724C65.0125 40.0307 64.9013 40.0466 64.8112 40.0677C64.0431 40.2161 63.5717 40.2849 63.5611 40.2425Z" fill="#263238"/>
<path d="M64.6204 49.2002C64.6204 49.2002 61.7441 49.8624 57.7818 48.2043C57.7818 48.2043 59.4928 51.8859 64.8853 50.5775L64.6204 49.2002Z" fill="#EB996E"/>
<path d="M60.4304 34.225C60.388 34.4421 59.6199 34.4527 58.7512 34.6911C57.8771 34.9083 57.1991 35.2738 57.0561 35.1043C56.9925 35.0248 57.0879 34.8129 57.3474 34.5746C57.607 34.3362 58.0308 34.0819 58.5552 33.9442C59.0796 33.8065 59.5775 33.8224 59.9166 33.9071C60.2609 33.9866 60.4516 34.1243 60.4304 34.225Z" fill="#263238"/>
<path d="M66.8983 32.9008C66.7924 33.0915 66.2468 32.9908 65.6164 33.0703C64.986 33.1285 64.4775 33.351 64.3292 33.1921C64.2656 33.1127 64.3239 32.9273 64.5305 32.7313C64.7371 32.5353 65.0973 32.3499 65.5263 32.2969C65.9554 32.2492 66.3527 32.3499 66.5964 32.4929C66.8506 32.6412 66.946 32.8054 66.8983 32.9008Z" fill="#263238"/>
<path d="M59.175 37.1756C59.228 37.504 59.5458 37.7318 59.8901 37.6841C60.2344 37.6364 60.4675 37.3345 60.4146 37.006C60.3616 36.6776 60.0437 36.4498 59.6994 36.4975C59.3604 36.5452 59.1273 36.8471 59.175 37.1756Z" fill="#263238"/>
<path d="M65.8547 35.7295C65.9077 36.0579 66.2255 36.2857 66.5698 36.238C66.9141 36.1904 67.1472 35.8884 67.0942 35.56C67.0413 35.2316 66.7234 35.0038 66.3791 35.0515C66.0401 35.0991 65.8017 35.4011 65.8547 35.7295Z" fill="#263238"/>
<path d="M64.7476 41.7101C64.2602 41.567 63.8471 41.816 63.6458 42.1656C63.4498 42.5152 63.4974 42.9973 63.7782 43.2833C64.0642 43.5694 64.5675 43.6171 64.88 43.3628C65.0919 43.188 65.1978 42.9125 65.2243 42.6424C65.2508 42.3934 65.2084 42.1232 65.0548 41.922C64.9012 41.7207 64.6098 41.6147 64.3821 41.7154" fill="#EB996E"/>
<path d="M67.8412 29.0126C67.4969 27.3387 66.3421 25.9084 64.9383 24.9285C63.7465 24.0968 62.3321 23.5512 60.8807 23.5035C59.4293 23.4611 57.9408 23.9485 56.8866 24.955C56.1079 25.6966 55.7106 26.7507 55.6789 27.826L55.7636 27.0844C55.5464 27.6936 55.5464 28.3505 55.7742 28.949C55.7742 28.949 55.7742 28.949 55.7742 28.9543V28.949C55.896 29.2722 56.0444 29.6006 56.1768 29.9237C56.5476 30.8507 57.268 31.6294 58.1579 32.0797C58.5711 32.2863 59.0214 32.424 59.4822 32.4028C59.9431 32.3816 60.404 32.1856 60.6847 31.8201C61.082 31.2957 61.0343 30.5753 60.9708 29.9237C61.3627 30.5382 61.7812 31.1792 62.4169 31.5447C63.0526 31.9102 63.9637 31.8943 64.4086 31.3169C64.8377 30.7554 64.6682 29.9502 64.4192 29.2881C64.8218 29.9078 65.4045 30.4058 66.072 30.7183C66.4428 30.8878 66.8771 31.0043 67.2532 30.8401C67.5711 30.7024 67.7829 30.3846 67.8677 30.0456C67.9472 29.7065 67.9101 29.3516 67.8412 29.0126Z" fill="#263238"/>
<path d="M64.0166 30.3952C63.969 30.3952 63.9743 29.7649 63.773 28.7902C63.5664 27.8314 63.0843 26.47 61.9454 25.4688C61.3839 24.9762 60.7377 24.6319 60.1126 24.4783C59.4875 24.3246 58.889 24.3405 58.4069 24.4359C57.4322 24.6319 56.9608 25.098 56.9343 25.0451C56.9237 25.0345 57.0243 24.9126 57.2574 24.7431C57.4905 24.5736 57.8613 24.3723 58.3645 24.2452C58.8678 24.1233 59.4981 24.081 60.1709 24.2293C60.8436 24.3776 61.5375 24.7378 62.1255 25.2569C63.328 26.3164 63.8047 27.7572 63.9637 28.7478C64.0431 29.251 64.0643 29.6642 64.059 29.9503C64.0537 30.2416 64.0325 30.3952 64.0166 30.3952Z" fill="#455A64"/>
<path d="M112.804 92.1552L92.4361 84.0823C92.4361 84.0823 82.0006 70.3996 82.2178 70.1348L74.8918 78.1547L85.5392 92.5631L110.208 98.337L121.889 98.4324C120.983 93.9404 112.804 92.1552 112.804 92.1552Z" fill="#FFBE9D"/>
<path d="M68.4081 53.1254L65.6323 52.05L53.6501 53.5703V55.6892L53.3058 55.7316C53.3058 55.7316 49.5818 56.4096 45.9638 58.5815C41.5831 61.2142 39.3053 66.2836 40.1157 71.3318C40.6031 74.3618 41.546 78.0434 43.3682 80.1729C46.8485 84.2411 50.0268 79.2141 50.0268 79.2141C50.0268 79.2141 52.2092 84.1987 52.0874 86.5507C51.9815 88.5265 51.1074 92.6371 50.8267 93.9191C50.779 94.1363 50.922 94.3428 51.1392 94.3852L76.4174 99.0574L76.5393 92.8808L75.7341 67.4702L74.6164 57.6015C74.627 57.5962 74.6587 52.8817 68.4081 53.1254Z" fill="#A986B0"/>
<path d="M74.2402 55.9541L83.8758 69.8804L76.1154 79.3306L74.2402 55.9541Z" fill="#A986B0"/>
<path d="M76.3062 85.2583C76.285 85.2583 76.2744 84.9351 76.2691 84.3577C76.2638 83.7327 76.2532 82.9063 76.2373 81.9104C76.1896 79.8445 76.0731 76.9946 75.6599 73.8693C75.2626 70.744 74.6535 67.9523 74.1873 65.9394C73.9595 64.97 73.7688 64.1649 73.6258 63.5557C73.4934 62.9942 73.4298 62.6816 73.4457 62.6763C73.4616 62.671 73.5622 62.9783 73.7264 63.5292C73.8907 64.0854 74.1131 64.8906 74.3727 65.8917C74.8865 67.8941 75.5275 70.691 75.9301 73.8322C76.3433 76.9682 76.428 79.8339 76.428 81.9051C76.4174 82.9381 76.4015 83.7751 76.3697 84.3577C76.3486 84.9404 76.3221 85.2583 76.3062 85.2583Z" fill="#263238"/>
<path d="M52.5906 64.0852C52.5906 64.1276 51.8596 64.1223 50.6836 64.1858C49.5129 64.2494 47.892 64.4083 46.1386 64.7685C44.3852 65.134 42.8385 65.6267 41.7366 66.0399C40.6348 66.4478 39.9674 66.7444 39.9515 66.7073C39.9409 66.6914 40.0998 66.5961 40.3965 66.4425C40.6878 66.2888 41.1222 66.0875 41.6678 65.8545C42.759 65.3936 44.3164 64.8639 46.0856 64.4984C47.8602 64.1329 49.497 64.0004 50.6783 63.9898C51.2716 63.9846 51.7483 63.9951 52.0768 64.0216C52.4052 64.0428 52.5906 64.064 52.5906 64.0852Z" fill="#FAFAFA"/>
<path d="M74.9129 70.4578C74.9182 70.4949 74.4627 70.6061 73.7105 70.7173C72.9583 70.8339 71.9147 70.9451 70.7599 70.9822C69.5999 71.0193 68.551 70.9822 67.7935 70.9186C67.036 70.8551 66.5752 70.7756 66.5752 70.7385C66.5805 70.6961 67.0466 70.7067 67.7988 70.7226C68.551 70.7385 69.5946 70.7438 70.7441 70.7067C71.8935 70.6644 72.9318 70.5902 73.684 70.5213C74.4415 70.4631 74.9076 70.4207 74.9129 70.4578Z" fill="#FAFAFA"/>
<path d="M79.3361 64.1596C79.3838 64.2125 78.531 65.0654 77.2702 65.8335C76.0095 66.6069 74.86 66.9777 74.8388 66.9141C74.807 66.8399 75.8877 66.3579 77.1272 65.6004C78.3668 64.8429 79.2832 64.096 79.3361 64.1596Z" fill="#FAFAFA"/>
<path d="M75.4427 57.7022C75.4904 57.7499 74.3515 58.7722 72.6352 59.4927C70.9242 60.2237 69.3986 60.3296 69.3986 60.266C69.3827 60.1813 70.8607 59.9588 72.5293 59.2437C74.2032 58.5339 75.3898 57.6333 75.4427 57.7022Z" fill="#FAFAFA"/>
<path d="M75.9671 81.2377C75.9724 81.2536 75.7976 81.3489 75.4638 81.5026C75.1354 81.6562 74.6481 81.8575 74.0389 82.08C72.8205 82.5302 71.0831 83.0282 69.1178 83.3354C67.1525 83.6373 65.3462 83.6797 64.0484 83.6161C63.3968 83.5844 62.8724 83.542 62.5122 83.4943C62.152 83.4466 61.956 83.4148 61.956 83.3937C61.9613 83.346 62.7612 83.4148 64.0537 83.4254C65.3462 83.436 67.1314 83.3619 69.0754 83.0652C71.0195 82.7633 72.7464 82.2971 73.9753 81.8999C75.2096 81.5026 75.9512 81.2006 75.9671 81.2377Z" fill="#FAFAFA"/>
<path d="M76.1631 88.4206C76.1684 88.4312 76.089 88.4736 75.9353 88.5477C75.7552 88.6325 75.5328 88.7384 75.2626 88.8655C74.6799 89.141 73.8165 89.5012 72.7358 89.9038C71.6552 90.3117 70.3468 90.7355 68.8742 91.138C67.3963 91.53 65.7594 91.8902 64.0167 92.1657C62.2739 92.4306 60.6 92.5789 59.0744 92.6583C57.5488 92.7166 56.1715 92.7113 55.022 92.653C53.8672 92.5948 52.9402 92.5153 52.2993 92.4306C52.0079 92.3882 51.7642 92.3564 51.5629 92.3299C51.3934 92.3034 51.3087 92.2875 51.3087 92.2769C51.3087 92.2663 51.3987 92.2663 51.5682 92.2769C51.7695 92.2875 52.0132 92.3034 52.3099 92.3246C52.9508 92.3776 53.8831 92.4306 55.0273 92.4623C56.1768 92.4994 57.5435 92.4835 59.0638 92.4094C60.5788 92.3193 62.2421 92.1657 63.9743 91.9008C65.7065 91.6254 67.338 91.2705 68.8106 90.8997C70.2779 90.513 71.5863 90.1104 72.6723 89.729C73.7582 89.3529 74.6269 89.0192 75.2202 88.7755C75.4957 88.6695 75.7235 88.5795 75.9089 88.5053C76.0731 88.4418 76.1631 88.4153 76.1631 88.4206Z" fill="#FAFAFA"/>
<path d="M29.6855 201.034L26.825 213.975L21.6073 223.557C21.2312 224.246 21.5172 225.115 22.2324 225.443C22.6349 225.629 23.0905 225.607 23.4719 225.385C25.9033 223.981 34.8026 218.779 34.9615 217.82C35.1416 216.708 38.8867 204.371 38.8867 204.371L29.6855 201.034Z" fill="#A986B0"/>
<g opacity="0.6">
<path opacity="0.6" d="M22.2323 225.443L35.1734 216.957L35.0409 217.503C34.9244 217.974 34.649 218.393 34.257 218.673C33.2028 219.431 30.2523 221.47 23.5195 225.401C23.1223 225.623 22.6402 225.639 22.2323 225.443Z" fill="white"/>
</g>
<g opacity="0.6">
<g opacity="0.6">
<path opacity="0.6" d="M33.5524 212.152C33.1763 212.295 32.9485 212.756 33.081 213.143C33.2081 213.524 33.6795 213.757 34.0556 213.62C34.437 213.482 34.7231 212.936 34.5536 212.571C34.3841 212.205 33.8173 211.962 33.4835 212.184" fill="white"/>
</g>
</g>
<path d="M26.5548 220.538C26.4754 220.554 26.3482 219.812 25.6702 219.261C25.008 218.689 24.2558 218.7 24.2558 218.615C24.2505 218.583 24.4412 218.52 24.7538 218.552C25.061 218.578 25.4901 218.732 25.8556 219.039C26.2264 219.352 26.4436 219.744 26.5283 220.04C26.6184 220.342 26.5919 220.538 26.5548 220.538Z" fill="#263238"/>
<path d="M25.2147 222.037C25.1406 222.079 24.828 221.56 24.2083 221.205C23.5991 220.84 22.9899 220.819 22.9899 220.734C22.9687 220.66 23.6574 220.538 24.3566 220.951C25.0611 221.359 25.2889 222.021 25.2147 222.037Z" fill="#263238"/>
<path d="M28.8062 218.748C28.7321 218.795 28.2553 217.99 27.3442 217.354C26.4384 216.703 25.5273 216.528 25.5431 216.443C25.5378 216.369 26.539 216.427 27.5137 217.121C28.4884 217.805 28.8751 218.726 28.8062 218.748Z" fill="#263238"/>
<path d="M30.0034 214.886C29.9504 214.955 29.3094 214.483 28.393 214.224C27.4766 213.948 26.6873 214.006 26.682 213.916C26.6608 213.842 27.4925 213.652 28.4778 213.943C29.4631 214.224 30.0563 214.838 30.0034 214.886Z" fill="#263238"/>
<path d="M30.9409 211.109C30.8827 211.173 30.2735 210.569 29.2829 210.373C28.2976 210.156 27.4978 210.463 27.4713 210.383C27.4554 210.352 27.6355 210.224 27.9745 210.124C28.3135 210.023 28.8115 209.975 29.3412 210.087C29.8709 210.198 30.3106 210.442 30.5807 210.669C30.8509 210.897 30.9674 211.083 30.9409 211.109Z" fill="#263238"/>
<path d="M29.4842 209.658C29.4683 209.652 29.4789 209.472 29.5848 209.165C29.6908 208.858 29.8921 208.423 30.2841 207.984C30.4801 207.777 30.7026 207.507 31.1051 207.427C31.3064 207.385 31.5607 207.486 31.6719 207.692C31.7832 207.894 31.7779 208.116 31.7355 208.323C31.5236 209.138 30.6284 209.753 29.6802 209.647C28.732 209.52 28.0275 208.789 27.8315 207.994C27.7944 207.793 27.7944 207.555 27.948 207.364C28.1016 207.168 28.3824 207.147 28.5572 207.221C28.928 207.369 29.1134 207.65 29.2988 207.867C29.6537 208.333 29.8391 208.773 29.9345 209.08C30.0298 209.393 30.0404 209.573 30.0245 209.573C29.9715 209.594 29.855 208.863 29.1399 207.994C28.9545 207.788 28.7479 207.539 28.483 207.443C28.3506 207.396 28.2235 207.422 28.1493 207.517C28.0751 207.608 28.0646 207.777 28.0963 207.936C28.2658 208.588 28.9121 209.255 29.712 209.35C30.5119 209.451 31.2958 208.905 31.4759 208.254C31.5183 208.095 31.513 207.925 31.4495 207.809C31.3912 207.698 31.2694 207.639 31.1369 207.661C30.8615 207.698 30.6284 207.931 30.4324 208.121C29.659 208.942 29.5372 209.684 29.4842 209.658Z" fill="#263238"/>
<g opacity="0.3">
<path opacity="0.3" d="M29.3518 202.437L28.732 205.404L38.1027 206.961L38.8867 204.371L29.6855 201.034L29.3518 202.437Z" fill="black"/>
</g>
<path d="M71.5652 205.822L70.7918 216.163C70.7918 216.163 81.0419 220.421 81.0895 222.35L60.9814 221.571L61.527 205.409L71.5652 205.822Z" fill="#A986B0"/>
<g opacity="0.6">
<g opacity="0.6">
<path opacity="0.6" d="M64.6047 215.05C64.2127 215.14 63.9267 215.569 64.0008 215.967C64.075 216.364 64.5093 216.655 64.9013 216.576C65.2986 216.491 65.6535 215.988 65.537 215.601C65.4205 215.214 64.8907 214.897 64.5305 215.071" fill="white"/>
</g>
</g>
<g opacity="0.6">
<path opacity="0.6" d="M60.9761 221.571L61.0926 219.945L80.3267 221.301C80.3267 221.301 81.2061 221.725 81.0789 222.35L60.9761 221.571Z" fill="white"/>
</g>
<path d="M71.1202 216.073C71.1149 216.173 70.6222 216.194 70.1243 216.491C69.6211 216.777 69.3562 217.19 69.2662 217.148C69.1761 217.127 69.3456 216.544 69.9495 216.194C70.5534 215.845 71.1414 215.982 71.1202 216.073Z" fill="#263238"/>
<path d="M73.1968 217.026C73.218 217.121 72.7836 217.275 72.434 217.677C72.0738 218.069 71.9731 218.514 71.8725 218.509C71.7771 218.52 71.7347 217.942 72.1797 217.45C72.6141 216.952 73.1968 216.936 73.1968 217.026Z" fill="#263238"/>
<path d="M74.2932 219.601C74.2032 219.616 74.0867 219.124 74.3568 218.594C74.627 218.064 75.0984 217.868 75.1355 217.953C75.1885 218.038 74.8759 218.313 74.6588 218.748C74.4363 219.182 74.3939 219.59 74.2932 219.601Z" fill="#263238"/>
<path d="M71.0354 213.699C70.9931 213.789 70.5481 213.636 69.9866 213.652C69.4304 213.657 68.9907 213.827 68.9431 213.742C68.8901 213.668 69.3245 213.323 69.9813 213.313C70.6382 213.292 71.0831 213.62 71.0354 213.699Z" fill="#263238"/>
<g opacity="0.3">
<path opacity="0.3" d="M71.4062 207.867L71.2738 209.711L61.3945 209.239L61.4581 207.11L71.4062 207.867Z" fill="black"/>
</g>
<path d="M71.152 211.607C71.152 211.649 70.76 211.692 70.1455 211.565C69.8383 211.501 69.4781 211.384 69.102 211.199C68.9166 211.109 68.7259 210.998 68.5352 210.871C68.4451 210.807 68.3392 210.744 68.2385 210.622C68.1326 210.516 68.0796 210.251 68.212 210.097C68.3233 209.949 68.5034 209.885 68.6517 209.891C68.8 209.891 68.9166 209.928 69.0278 209.96C69.2503 210.023 69.4569 210.103 69.6476 210.198C70.0237 210.389 70.3309 210.622 70.5534 210.844C71.0037 211.294 71.1467 211.665 71.1149 211.686C71.0672 211.718 70.8553 211.4 70.3945 211.024C70.1667 210.839 69.8701 210.643 69.5151 210.484C69.3403 210.405 69.1443 210.336 68.943 210.283C68.7312 210.219 68.5511 210.209 68.4928 210.304C68.4716 210.341 68.4663 210.352 68.5087 210.415C68.5511 210.473 68.6358 210.532 68.7259 210.595C68.9007 210.717 69.0755 210.828 69.245 210.918C69.5893 211.104 69.9177 211.236 70.2038 211.332C70.7759 211.512 71.1573 211.554 71.152 211.607Z" fill="#263238"/>
<path d="M71.0195 211.745C70.9824 211.761 70.8023 211.4 70.7917 210.759C70.7864 210.442 70.8341 210.06 70.9718 209.663C71.0407 209.462 71.1361 209.26 71.2526 209.059C71.3797 208.863 71.5334 208.603 71.9148 208.577C72.116 208.577 72.275 208.741 72.3226 208.874C72.3862 209.011 72.3915 209.128 72.4127 209.244C72.4392 209.483 72.4286 209.711 72.3862 209.922C72.3067 210.346 72.116 210.696 71.9148 210.945C71.5016 211.448 71.0884 211.554 71.0778 211.517C71.046 211.464 71.3956 211.289 71.7188 210.802C71.8777 210.558 72.0207 210.24 72.0737 209.869C72.1002 209.684 72.1055 209.488 72.079 209.287C72.0578 209.07 71.9836 208.895 71.8989 208.916C71.7982 208.911 71.6234 209.064 71.5334 209.234C71.4221 209.409 71.3321 209.589 71.2632 209.769C71.1255 210.129 71.0566 210.473 71.0301 210.765C70.9824 211.358 71.0725 211.729 71.0195 211.745Z" fill="#263238"/>
<path d="M50.7471 94.3059C50.7471 94.3059 47.5529 94.4436 45.4499 105.319C43.3469 116.189 27.1746 204.265 27.1746 204.265L38.8867 204.371L60.976 120.633L59.5087 206.956L71.4062 207.867C71.4062 207.867 80.3319 112.364 80.4167 106.807C80.5226 99.8785 76.5445 92.8704 76.5445 92.8704L50.7471 94.3059Z" fill="#263238"/>
<path d="M66.8399 93.3789C66.9141 93.3948 65.701 99.6031 64.1278 107.247C62.5545 114.891 61.2196 121.078 61.1455 121.062C61.0713 121.046 62.2844 114.838 63.8576 107.189C65.4309 99.5449 66.7658 93.363 66.8399 93.3789Z" fill="#455A64"/>
<path d="M68.6676 94.9256C68.6464 94.8991 68.9854 94.7985 69.3456 95.1216C69.5151 95.2805 69.6793 95.5401 69.6634 95.8685C69.6581 96.2075 69.4039 96.5307 69.0649 96.6737C68.7311 96.8167 68.3179 96.7743 68.069 96.5413C67.82 96.3188 67.7511 96.0168 67.7564 95.7891C67.7776 95.3017 68.0849 95.1322 68.0902 95.164C68.1272 95.1905 67.9154 95.3918 67.9524 95.7838C67.9683 95.9692 68.0531 96.2023 68.2332 96.3453C68.408 96.4936 68.6993 96.5254 68.9536 96.4141C69.2132 96.3029 69.3933 96.0804 69.4092 95.8473C69.4304 95.6143 69.3244 95.3971 69.2026 95.2541C68.9483 94.9627 68.6623 94.9733 68.6676 94.9256Z" fill="#455A64"/>
<path d="M68.159 99.2324C68.1537 99.2006 68.4875 99.243 68.6729 99.672C68.7523 99.8733 68.7894 100.17 68.6411 100.451C68.4928 100.742 68.1325 100.912 67.7829 100.88C67.4333 100.859 67.0996 100.631 66.9989 100.324C66.893 100.022 66.9778 99.7356 67.089 99.5502C67.338 99.1529 67.677 99.1635 67.6664 99.1953C67.6823 99.2377 67.4174 99.3012 67.2638 99.6402C67.1896 99.8045 67.1526 100.032 67.2426 100.234C67.3221 100.435 67.5499 100.588 67.8094 100.61C68.0743 100.631 68.3179 100.514 68.4292 100.329C68.5457 100.143 68.5457 99.9104 68.4981 99.7409C68.3868 99.3754 68.1378 99.2694 68.159 99.2324Z" fill="#455A64"/>
<path d="M56.9343 95.0369C56.9502 95.0422 56.9078 95.2382 56.7965 95.5825C56.6853 95.9268 56.484 96.4141 56.1768 96.9862C55.5729 98.1251 54.4446 99.5977 52.7813 100.694C51.1127 101.796 49.3169 102.246 48.0297 102.352C47.3834 102.411 46.859 102.4 46.4988 102.368C46.1386 102.336 45.9426 102.299 45.9426 102.283C45.9426 102.23 46.7425 102.32 48.0085 102.162C49.2692 102.008 51.0067 101.537 52.6277 100.466C54.2486 99.3965 55.3716 97.9874 56.0073 96.8909C56.6588 95.7891 56.8866 95.021 56.9343 95.0369Z" fill="#455A64"/>
<path d="M79.7228 102.76C79.7122 102.776 79.5851 102.702 79.3732 102.548C79.156 102.4 78.8594 102.156 78.5257 101.823C77.8529 101.16 77.053 100.085 76.5286 98.7291C76.0095 97.373 75.8771 96.0381 75.9353 95.0952C75.9618 94.6238 76.0148 94.2423 76.0784 93.9881C76.1366 93.7285 76.179 93.5908 76.1949 93.5961C76.2426 93.6067 76.1313 94.1735 76.1313 95.1005C76.126 96.0222 76.2849 97.3094 76.7882 98.6284C77.2967 99.9421 78.0436 101.002 78.6687 101.685C79.2885 102.374 79.7546 102.723 79.7228 102.76Z" fill="#455A64"/>
<path d="M46.0856 73.3556L51.2874 73.6416C51.6158 75.3262 52.76 77.9059 52.76 77.9059C56.9501 70.6381 60.1973 60.8966 61.0025 56.982C60.8859 56.59 60.7482 56.1609 60.5734 55.6736C60.3721 55.1174 60.5469 54.0579 60.637 53.4699C60.78 52.5959 61.0237 51.4252 61.0925 50.8849C61.315 49.2322 61.5799 48.9726 62.1573 49.158C62.9412 49.4123 61.8341 53.8036 62.4804 53.899C62.8247 53.952 63.2485 52.4476 63.3703 51.2133C63.4922 49.9791 64.0537 46.181 64.4615 45.932C65.0601 45.5612 65.5792 46.1492 65.4309 47.3782C65.2773 48.623 65.0866 52.331 65.7382 52.384C66.3791 52.4317 66.9194 46.1386 66.9194 46.1386C66.9194 46.1386 66.8188 44.7666 67.571 44.8037C68.9324 44.862 67.8676 51.4994 67.7511 52.1297C67.6716 52.5694 68.3762 52.6489 68.4397 52.1721C68.5033 51.6848 68.8317 45.879 70.2196 45.9267C71.2843 45.9638 69.3932 51.3934 69.9918 52.6542C70.5904 53.9149 71.0036 48.3793 72.0206 48.4535C72.3967 48.48 72.6775 48.5541 71.9836 51.6901C71.6075 53.3746 70.5109 56.4681 69.5521 59.032C67.9418 67.7194 60.8753 95.5085 49.7883 90.4232C43.5853 87.5786 40.693 73.4827 40.693 73.4827L46.0856 73.3556Z" fill="#FFBE9D"/>
<path d="M69.5575 59.032C69.5522 59.032 69.5681 58.9632 69.6105 58.8413C69.6581 58.7036 69.7217 58.5235 69.7959 58.2957C69.9707 57.7925 70.2144 57.0933 70.5216 56.198C70.8288 55.2869 71.2102 54.1692 71.5863 52.8555C71.777 52.1987 71.9359 51.4888 72.0843 50.7313C72.1531 50.3499 72.2273 49.9579 72.2697 49.5554C72.2908 49.3541 72.312 49.1475 72.2961 48.9515C72.2803 48.7449 72.2485 48.5754 72.0843 48.5754C71.9148 48.5277 71.8035 48.6707 71.687 48.8455C71.581 49.0203 71.4963 49.2269 71.4221 49.4335C71.2738 49.852 71.1573 50.297 71.0407 50.7472C70.9242 51.2028 70.8182 51.6689 70.6805 52.1457C70.5957 52.3841 70.5587 52.6171 70.3627 52.8767C70.3256 52.9085 70.2938 52.9509 70.2196 52.9667C70.1402 52.9879 70.0766 52.9562 70.0184 52.9244C69.9442 52.8555 69.9071 52.7866 69.87 52.7231C69.8118 52.5906 69.7747 52.4529 69.7588 52.3205C69.6634 51.2558 69.9071 50.2281 70.0713 49.1634C70.1614 48.6336 70.2567 48.0933 70.3309 47.5477C70.3627 47.2776 70.3945 47.0021 70.3945 46.732C70.4051 46.483 70.3627 46.144 70.2514 46.0963C70.1137 46.0433 69.87 46.1969 69.7429 46.4247C69.5946 46.6472 69.4886 46.9068 69.3986 47.1769C69.2132 47.7172 69.0966 48.2893 68.9907 48.872C68.8901 49.4547 68.8106 50.048 68.747 50.6519C68.7152 50.9538 68.6888 51.2558 68.657 51.563L68.6146 52.0238C68.604 52.151 68.604 52.4105 68.4027 52.5589C68.2173 52.6966 67.9736 52.7125 67.7776 52.5853C67.677 52.5218 67.6028 52.4052 67.5869 52.2834C67.5763 52.2251 67.5869 52.1669 67.5922 52.1139L67.6134 52.0027C67.6611 51.6954 67.7088 51.3882 67.7565 51.0756C67.8465 50.4559 67.9207 49.8255 67.9789 49.1898C68.0372 48.5542 68.0849 47.9132 68.0902 47.2723C68.0902 46.6366 68.0849 45.9692 67.9048 45.3865C67.8465 45.2117 67.7459 45.0474 67.6399 45.0051C67.5287 44.9627 67.3645 45.0051 67.2797 45.1216C67.0943 45.3812 67.0678 45.8049 67.0784 46.1493V46.1652V46.1757C66.9672 47.4206 66.8294 48.6442 66.6493 49.8467C66.5593 50.4453 66.4586 51.0439 66.305 51.6319C66.2679 51.7802 66.2203 51.9285 66.1726 52.0715C66.1037 52.2198 66.0825 52.3682 65.8707 52.5271C65.6905 52.6118 65.5528 52.5165 65.484 52.4423C65.4045 52.3629 65.3727 52.2834 65.3409 52.204C65.2774 52.0503 65.2509 51.8967 65.2244 51.7484C65.0549 50.5565 65.1237 49.407 65.1926 48.2787C65.2138 47.7119 65.3515 47.1504 65.2774 46.6525C65.2403 46.4088 65.1449 46.1599 64.9807 46.0486C64.9013 45.9956 64.8059 45.985 64.7106 46.0062C64.6629 46.0221 64.6099 46.038 64.5622 46.0698C64.5146 46.1069 64.5252 46.0963 64.4881 46.1599C64.2815 46.5942 64.1808 47.1398 64.0696 47.6325C63.9637 48.141 63.8789 48.6442 63.7942 49.1422C63.7147 49.6401 63.6405 50.1328 63.577 50.6148C63.5134 51.0968 63.4763 51.5842 63.3863 52.0556C63.2962 52.5271 63.185 52.9879 63.0155 53.4276C62.9731 53.5388 62.9201 53.6448 62.8618 53.7507C62.7877 53.8514 62.7453 53.9785 62.544 54.0421C62.4275 54.0739 62.3268 53.9944 62.2739 53.9308C62.2315 53.862 62.2103 53.7984 62.1891 53.7348C62.1626 53.613 62.152 53.4965 62.1467 53.3799C62.1361 52.4794 62.2686 51.6477 62.3162 50.8479C62.3427 50.4506 62.3586 50.0586 62.3109 49.6984C62.2897 49.5289 62.2315 49.3276 62.1361 49.2905C61.9931 49.2322 61.813 49.2057 61.7071 49.2799C61.474 49.4494 61.3892 49.8361 61.3151 50.1486C61.2409 50.4771 61.2038 50.8002 61.1456 51.1127C60.9231 52.3682 60.69 53.4435 60.5788 54.3228C60.5258 54.7625 60.5046 55.1598 60.5629 55.4882C60.637 55.8113 60.743 56.0921 60.8065 56.3146C60.8701 56.5265 60.9178 56.696 60.9602 56.8284C60.9919 56.9449 61.0078 57.0032 61.0025 57.0032C60.9972 57.0032 60.9707 56.9502 60.9284 56.8337C60.8807 56.7066 60.8224 56.5371 60.7483 56.3305C60.6741 56.1027 60.5629 55.8484 60.4728 55.4988C60.4039 55.1545 60.4145 54.7466 60.4569 54.3016C60.5523 53.4064 60.7695 52.3364 60.9707 51.0809C61.029 50.7684 61.0555 50.4347 61.1297 50.101C61.1667 49.9315 61.2038 49.7619 61.2674 49.5871C61.3363 49.4176 61.4051 49.2269 61.6011 49.0998C61.8077 48.9727 62.0355 49.0203 62.2262 49.0892C62.4752 49.2322 62.4857 49.4706 62.5281 49.656C62.5811 50.0533 62.5652 50.4506 62.544 50.8532C62.5069 51.6583 62.3798 52.5006 62.3957 53.3587C62.401 53.4647 62.4116 53.5653 62.4328 53.6607C62.454 53.7613 62.5069 53.8037 62.4963 53.7825C62.5175 53.7878 62.597 53.6925 62.6394 53.613C62.687 53.523 62.7347 53.4223 62.7718 53.3217C62.9307 52.9085 63.0367 52.4582 63.1214 51.9974C63.2115 51.5418 63.2379 51.0598 63.3015 50.5724C63.3598 50.0851 63.4339 49.5924 63.5081 49.0892C63.5876 48.586 63.6723 48.0827 63.7783 47.5689C63.8948 47.0551 63.969 46.5413 64.2232 46.0062C64.2391 45.9533 64.3504 45.8314 64.4086 45.7996C64.4775 45.7573 64.5517 45.7308 64.6311 45.7043C64.7953 45.6619 64.9913 45.6831 65.1396 45.7838C65.431 45.9903 65.521 46.3082 65.574 46.5942C65.6164 46.8856 65.6058 47.1769 65.5687 47.4577C65.5369 47.7278 65.5157 48.0086 65.4946 48.284C65.431 49.3911 65.3674 50.5512 65.5316 51.6795C65.5581 51.8173 65.5846 51.955 65.6323 52.0715C65.6588 52.1245 65.6853 52.1828 65.7117 52.2092C65.7276 52.2251 65.7329 52.2251 65.7382 52.2304C65.7276 52.3523 65.7382 52.2569 65.7329 52.2834C65.7329 52.2622 65.7276 52.2622 65.7117 52.2357C65.7382 52.2145 65.823 52.0662 65.8654 51.9444C65.913 51.812 65.9554 51.6742 65.9872 51.5312C66.1302 50.9644 66.2309 50.3764 66.3209 49.7778C66.4957 48.586 66.6334 47.3623 66.7447 46.1281V46.1546C66.7394 45.7467 66.7341 45.3229 67.0148 44.8991C67.1791 44.6925 67.4757 44.576 67.7565 44.6819C68.0319 44.8091 68.1326 45.058 68.212 45.2593C68.4239 45.9374 68.4133 46.5995 68.4186 47.2564C68.408 47.9132 68.3656 48.5595 68.3021 49.2004C68.2385 49.8414 68.1643 50.4718 68.0743 51.1021C68.0266 51.4147 67.9789 51.7272 67.9313 52.0397C67.8942 52.2357 67.8995 52.241 67.9577 52.2993C68.0213 52.347 68.1431 52.3417 68.2067 52.2887C68.2756 52.241 68.2809 52.151 68.2968 51.9815L68.3391 51.5206C68.3709 51.2134 68.4027 50.9061 68.4292 50.6042C68.4981 49.995 68.5775 49.3964 68.6835 48.8032C68.7894 48.2099 68.9112 47.6272 69.1072 47.0604C69.2079 46.7796 69.3191 46.4989 69.4939 46.2393C69.584 46.1122 69.6846 45.985 69.833 45.8897C69.9866 45.7996 70.1561 45.7202 70.3839 45.8102C70.601 45.9268 70.6381 46.1281 70.6752 46.2764C70.6964 46.43 70.707 46.5836 70.7017 46.7267C70.6964 47.018 70.6646 47.2988 70.6275 47.5795C70.5534 48.1357 70.4527 48.676 70.3627 49.2057C70.1879 50.2599 69.9495 51.3087 70.0343 52.2781C70.0448 52.3947 70.0766 52.5059 70.119 52.6012C70.1455 52.6489 70.172 52.6913 70.1879 52.7072C70.1879 52.7019 70.1826 52.6966 70.1773 52.7284C70.172 52.7708 70.1773 52.7178 70.172 52.7284C70.1508 52.6966 70.1667 52.7072 70.1773 52.6913C70.2885 52.5536 70.368 52.2887 70.4368 52.0715C70.5746 51.6107 70.6858 51.1392 70.8023 50.6837C70.9189 50.2281 71.0407 49.7778 71.1996 49.3488C71.2791 49.1316 71.3638 48.9197 71.491 48.7184C71.5598 48.6178 71.6234 48.5171 71.7346 48.4376C71.7823 48.3953 71.8565 48.3635 71.9253 48.3423C72.0101 48.3317 72.0737 48.3317 72.1266 48.3423C72.2538 48.3476 72.418 48.4588 72.4604 48.586C72.5133 48.7078 72.5239 48.8243 72.5292 48.9356C72.5398 49.1581 72.5133 49.37 72.4922 49.5765C72.4445 49.9897 72.365 50.3817 72.2909 50.7631C72.1372 51.5259 71.9677 52.2463 71.7664 52.8979C71.3691 54.2116 70.9719 55.324 70.6434 56.2298C70.315 57.1356 70.0448 57.8349 69.8594 58.3063C69.7694 58.5288 69.7005 58.7036 69.6423 58.8413C69.5946 58.9738 69.5628 59.032 69.5575 59.032Z" fill="#EB996E"/>
<path d="M40.6454 73.9596C41.6519 77.5087 43.6171 82.9966 45.7307 88.7811C46.0379 89.6181 47.198 89.671 47.5794 88.8659L52.7601 77.9113C52.7601 77.9113 51.5099 68.9113 51.6159 69.2292C51.7218 69.547 40.9208 70.3946 40.9208 70.3946L40.6454 73.9596Z" fill="#A986B0"/>
<path d="M52.3152 72.1955C52.3258 72.2378 51.6689 72.4285 50.6465 72.8205C49.6189 73.2125 48.231 73.8323 46.8008 74.6957C45.3705 75.5645 44.1787 76.5074 43.3576 77.2384C42.5365 77.9694 42.0651 78.462 42.0333 78.4302C42.0174 78.4197 42.1234 78.2819 42.3246 78.0436C42.5206 77.8052 42.8332 77.482 43.2305 77.0954C44.025 76.322 45.2116 75.342 46.663 74.4574C48.1145 73.578 49.5341 72.9794 50.583 72.6351C51.1074 72.4603 51.5418 72.3385 51.8437 72.2749C52.1404 72.2061 52.3099 72.1743 52.3152 72.1955Z" fill="#FAFAFA"/>
<path d="M54.3705 74.9237C54.344 74.9449 53.9891 74.5264 53.507 73.7901C53.025 73.0538 52.4211 71.989 51.9073 70.7495C51.3934 69.5047 51.065 68.3287 50.8849 67.4652C50.7048 66.6018 50.6624 66.0615 50.6942 66.0562C50.7366 66.0509 50.8478 66.5806 51.0756 67.4229C51.2981 68.2651 51.653 69.4199 52.1615 70.6436C52.6701 71.8725 53.2369 72.9372 53.6765 73.6894C54.1109 74.4469 54.4022 74.9025 54.3705 74.9237Z" fill="#263238"/>
<path d="M57.8294 26.3959C56.0178 29.3252 55.6311 33.118 56.8177 36.3599C57.3474 37.8166 58.1949 39.2522 58.0413 40.799C57.8824 42.3828 56.6852 43.8766 57.109 45.4075C57.358 46.3133 58.1367 46.9861 58.4333 47.876C58.7829 48.9196 58.4174 50.0532 58.2532 51.1391C57.8294 53.9148 58.714 56.7011 58.9365 59.5034C59.1537 62.3003 58.4015 65.5792 55.9065 66.7976C55.149 67.1684 54.1585 67.2743 53.5281 66.7075C52.7282 65.9871 52.9507 64.6999 53.1679 63.6405C55.3609 53.0355 48.5858 42.706 50.1326 31.9844C50.3816 30.2681 51.3404 27.3494 52.5799 26.1469C53.8194 24.9445 57.2361 25.0928 58.4068 26.3588" fill="#263238"/>
<path d="M47.394 57.1302C47.3728 57.1143 47.7118 56.7488 48.1886 55.9966C48.6653 55.2497 49.2586 54.0843 49.5711 52.5269C49.7247 51.7482 49.7883 50.8848 49.7353 49.9525C49.693 49.0202 49.5658 48.0137 49.6241 46.9437C49.6453 46.4086 49.7618 45.8577 49.926 45.3227C50.1114 44.7877 50.3604 44.2686 50.6518 43.7653C51.245 42.7642 51.9972 41.8319 52.6806 40.8307C53.3692 39.8348 53.936 38.786 54.1214 37.6736C54.3068 36.5612 54.1055 35.4593 53.936 34.4211C53.7506 33.3828 53.6235 32.3605 53.7029 31.4123C53.7612 30.4641 53.9519 29.59 54.2115 28.8272C54.7306 27.2964 55.4987 26.2051 56.0814 25.5324C56.3727 25.1934 56.6217 24.9444 56.8018 24.7908C56.9766 24.6319 57.072 24.5577 57.0826 24.563C57.1037 24.5842 56.7276 24.9073 56.1661 25.6013C55.6152 26.2899 54.8842 27.3758 54.3969 28.8908C54.1585 29.643 53.9837 30.5012 53.9307 31.4282C53.8672 32.3605 53.9943 33.3458 54.185 34.384C54.3598 35.417 54.577 36.5453 54.3863 37.7212C54.1956 38.8919 53.6023 39.9884 52.9084 40.9896C52.2144 42.0014 51.4622 42.9284 50.8848 43.9031C50.5935 44.3904 50.3551 44.8936 50.175 45.4075C50.0161 45.9213 49.8996 46.4404 49.8731 46.9648C49.8042 48.0031 49.926 49.0043 49.9578 49.9472C50.0055 50.8901 49.926 51.7853 49.7565 52.5746C49.4122 54.1584 48.7765 55.3291 48.2733 56.0654C48.019 56.4362 47.7966 56.7064 47.6429 56.8812C47.484 57.0454 47.3993 57.1355 47.394 57.1302Z" fill="#455A64"/>
<path d="M42.3669 57.9194C42.3563 57.9141 42.4146 57.7923 42.5311 57.5645C42.6636 57.3155 42.8331 56.9818 43.045 56.5686C43.4899 55.7052 44.1521 54.4604 44.8036 52.8553C45.4446 51.2555 46.0802 49.2532 46.0961 46.9701C46.1014 46.4033 46.0591 45.8206 45.969 45.2326C45.879 44.6446 45.7412 44.0461 45.6512 43.4157C45.5664 42.7906 45.524 42.1232 45.6936 41.4663C45.8578 40.8042 46.271 40.2215 46.7742 39.7659C47.7754 38.8601 48.9778 38.2668 49.5976 37.2021C50.2333 36.1585 50.3763 34.9296 50.5352 33.8066C50.6729 32.6677 50.8901 31.5712 51.2662 30.6071C51.6264 29.6377 52.1085 28.7954 52.6117 28.0803C53.6235 26.6395 54.7465 25.7337 55.5569 25.1934C55.9648 24.9232 56.2932 24.7378 56.5263 24.6266C56.7541 24.51 56.8812 24.457 56.8812 24.4676C56.8971 24.4941 56.4045 24.7272 55.6152 25.2834C54.8312 25.8449 53.7453 26.7613 52.7706 28.1916C52.2886 28.9014 51.8224 29.733 51.4834 30.6865C51.1285 31.6347 50.9219 32.6995 50.7895 33.8384C50.6358 34.9667 50.5034 36.2221 49.8307 37.3451C49.1579 38.4893 47.9078 39.0985 46.9649 39.9672C46.4881 40.4016 46.1173 40.9313 45.9637 41.5352C45.8101 42.1391 45.8419 42.7694 45.9266 43.3786C46.0114 43.9931 46.1438 44.5917 46.2339 45.1903C46.3239 45.7941 46.3663 46.3874 46.3557 46.9701C46.3186 49.3062 45.6565 51.3244 44.989 52.9295C44.3057 54.5398 43.6171 55.7688 43.1456 56.6163C42.9125 57.0189 42.7271 57.342 42.5841 57.5857C42.4517 57.8135 42.3775 57.9247 42.3669 57.9194Z" fill="#455A64"/>
<path d="M217.635 207.602C217.63 207.602 217.662 207.523 217.731 207.38C217.805 207.221 217.905 207.009 218.033 206.739C218.287 206.172 218.62 205.319 218.912 204.175C219.495 201.897 219.701 198.417 218.838 194.28C218.435 192.209 217.789 189.989 217.005 187.637C216.226 185.28 215.326 182.775 214.589 180.073C213.858 177.377 213.286 174.447 213.397 171.375C213.509 168.297 214.42 165.225 215.421 162.168C216.422 159.107 217.455 156.114 217.762 153.105C218.112 150.101 217.471 147.151 216.099 144.73C214.775 142.288 213.106 140.196 211.856 138.034C210.59 135.878 209.795 133.659 209.308 131.598C208.36 127.44 208.694 123.933 209.144 121.624C209.636 119.304 210.182 118.101 210.182 118.101C210.187 118.101 210.166 118.181 210.118 118.334C210.066 118.498 209.997 118.726 209.907 119.007C209.721 119.6 209.483 120.485 209.26 121.645C208.847 123.949 208.551 127.429 209.52 131.545C210.018 133.585 210.812 135.773 212.078 137.902C213.323 140.042 214.997 142.119 216.353 144.592C217.752 147.034 218.425 150.08 218.07 153.137C217.757 156.199 216.719 159.213 215.718 162.269C214.716 165.326 213.816 168.361 213.705 171.386C213.593 174.41 214.15 177.308 214.87 179.994C215.596 182.684 216.486 185.19 217.254 187.553C218.033 189.915 218.668 192.151 219.06 194.238C219.902 198.401 219.659 201.919 219.034 204.202C218.716 205.346 218.366 206.199 218.091 206.76C217.953 207.025 217.842 207.232 217.762 207.391C217.678 207.534 217.635 207.602 217.635 207.602Z" fill="#263238"/>
<path d="M213.546 140.169C213.546 140.169 211.009 132.064 215.559 127.318C215.718 127.154 215.998 127.228 216.041 127.456C216.285 128.796 216.586 132.875 213.546 140.169Z" fill="#A986B0"/>
<path d="M215.066 130.02C215.109 130.03 215.034 130.597 214.897 131.513C214.732 132.541 214.536 133.754 214.319 135.089C214.107 136.424 213.917 137.637 213.752 138.665C213.615 139.581 213.53 140.148 213.482 140.143C213.44 140.137 213.445 139.565 213.53 138.638C213.615 137.711 213.779 136.44 214.007 135.041C214.234 133.643 214.478 132.382 214.679 131.476C214.875 130.565 215.024 130.009 215.066 130.02Z" fill="#263238"/>
<path d="M216.528 159.292C216.528 159.292 218.08 150.938 224.32 148.872C224.538 148.798 224.749 148.999 224.681 149.222C224.267 150.514 222.625 154.265 216.528 159.292Z" fill="#A986B0"/>
<path d="M222.615 151.028C222.646 151.055 222.318 151.526 221.762 152.273C221.131 153.105 220.395 154.085 219.579 155.165C218.769 156.246 218.033 157.226 217.408 158.063C216.857 158.81 216.518 159.271 216.481 159.244C216.443 159.223 216.719 158.715 217.227 157.936C217.736 157.157 218.478 156.108 219.33 154.98C220.189 153.852 220.994 152.851 221.592 152.141C222.191 151.42 222.583 151.002 222.615 151.028Z" fill="#263238"/>
<path d="M214.838 180.242C214.838 180.242 213.895 171.799 219.267 168.011C219.458 167.879 219.717 168.011 219.712 168.239C219.696 169.595 219.219 173.658 214.838 180.242Z" fill="#A986B0"/>
<path d="M218.266 170.564C218.308 170.58 218.128 171.126 217.815 172C217.455 172.98 217.031 174.129 216.565 175.401C216.104 176.672 215.681 177.821 215.326 178.801C215.013 179.676 214.822 180.216 214.78 180.205C214.743 180.195 214.854 179.628 215.114 178.733C215.373 177.837 215.776 176.619 216.269 175.289C216.761 173.96 217.238 172.768 217.609 171.915C217.974 171.068 218.229 170.548 218.266 170.564Z" fill="#263238"/>
<path d="M219.542 201.315C219.542 201.315 218.901 192.844 224.405 189.248C224.596 189.12 224.855 189.263 224.845 189.491C224.776 190.853 224.151 194.894 219.542 201.315Z" fill="#A986B0"/>
<path d="M223.314 191.769C223.356 191.785 223.155 192.325 222.811 193.189C222.413 194.153 221.953 195.287 221.439 196.542C220.93 197.797 220.469 198.931 220.077 199.895C219.733 200.753 219.526 201.288 219.484 201.278C219.447 201.267 219.579 200.706 219.871 199.821C220.162 198.936 220.607 197.734 221.147 196.42C221.688 195.112 222.207 193.936 222.604 193.099C223.001 192.257 223.272 191.748 223.314 191.769Z" fill="#263238"/>
<path d="M209.907 133.05C209.907 133.05 202.379 129.119 202.231 122.545C202.226 122.312 202.48 122.169 202.671 122.302C203.788 123.075 206.887 125.74 209.907 133.05Z" fill="#A986B0"/>
<path d="M203.794 124.802C203.831 124.775 204.18 125.231 204.731 125.978C205.34 126.825 206.061 127.816 206.855 128.912C207.65 130.009 208.37 130.994 208.985 131.842C209.536 132.589 209.88 133.044 209.843 133.076C209.811 133.103 209.409 132.695 208.81 131.98C208.212 131.264 207.428 130.253 206.601 129.098C205.775 127.948 205.054 126.884 204.551 126.105C204.043 125.326 203.757 124.828 203.794 124.802Z" fill="#263238"/>
<path d="M217.99 150.456C217.99 150.456 210.235 146.987 209.689 140.439C209.668 140.211 209.917 140.053 210.113 140.169C211.279 140.874 214.531 143.347 217.99 150.456Z" fill="#A986B0"/>
<path d="M211.385 142.601C211.422 142.574 211.798 143.008 212.391 143.718C213.053 144.523 213.832 145.472 214.69 146.52C215.553 147.564 216.332 148.507 216.994 149.312C217.588 150.022 217.958 150.462 217.927 150.493C217.895 150.52 217.466 150.138 216.83 149.46C216.189 148.782 215.347 147.818 214.446 146.722C213.551 145.625 212.767 144.608 212.216 143.856C211.671 143.104 211.353 142.627 211.385 142.601Z" fill="#263238"/>
<path d="M213.53 169.881C213.53 169.881 208.206 163.265 210.701 157.184C210.791 156.972 211.077 156.94 211.199 157.136C211.914 158.291 213.689 161.973 213.53 169.881Z" fill="#A986B0"/>
<path d="M211.231 159.875C211.273 159.869 211.416 160.426 211.618 161.332C211.84 162.354 212.1 163.546 212.386 164.87C212.677 166.189 212.942 167.386 213.164 168.403C213.371 169.304 213.498 169.865 213.456 169.881C213.419 169.892 213.212 169.357 212.947 168.462C212.688 167.566 212.375 166.321 212.073 164.939C211.777 163.551 211.543 162.29 211.395 161.374C211.252 160.452 211.189 159.88 211.231 159.875Z" fill="#263238"/>
<path d="M218.801 192.733C218.801 192.733 211.104 189.137 210.67 182.579C210.654 182.351 210.903 182.192 211.099 182.319C212.253 183.039 215.463 185.566 218.801 192.733Z" fill="#A986B0"/>
<path d="M212.333 184.761C212.37 184.735 212.741 185.174 213.323 185.895C213.97 186.711 214.732 187.675 215.575 188.734C216.417 189.793 217.18 190.747 217.831 191.563C218.414 192.283 218.774 192.728 218.742 192.76C218.711 192.786 218.287 192.394 217.662 191.711C217.037 191.022 216.205 190.042 215.326 188.93C214.446 187.818 213.684 186.79 213.149 186.027C212.603 185.275 212.296 184.788 212.333 184.761Z" fill="#263238"/>
<path d="M234.125 159.334C234.131 159.334 234.136 159.398 234.136 159.52C234.131 159.668 234.125 159.848 234.12 160.065C234.099 160.574 234.067 161.263 234.03 162.126C233.929 163.938 233.792 166.459 233.627 169.479V169.484V169.494C233.077 172.567 231.514 175.973 229.411 179.284C227.869 181.72 226.254 183.935 224.855 185.995C223.452 188.051 222.265 189.952 221.444 191.637C220.612 193.321 220.13 194.767 219.85 195.779C219.712 196.288 219.611 196.68 219.553 196.955C219.489 197.225 219.452 197.368 219.442 197.363C219.431 197.363 219.447 197.215 219.489 196.939C219.526 196.664 219.611 196.261 219.728 195.747C219.977 194.72 220.432 193.252 221.243 191.541C222.048 189.83 223.224 187.902 224.617 185.831C226 183.755 227.61 181.54 229.146 179.114C231.238 175.825 232.796 172.466 233.363 169.442V169.457C233.575 166.438 233.749 163.917 233.876 162.11C233.945 161.252 234.004 160.563 234.041 160.055C234.062 159.838 234.078 159.663 234.094 159.515C234.11 159.398 234.12 159.334 234.125 159.334Z" fill="#263238"/>
<path d="M229.549 178.653C229.549 178.653 232.806 170.808 228.706 165.67C228.563 165.49 228.277 165.543 228.214 165.765C227.848 167.079 227.181 171.11 229.549 178.653Z" fill="#A986B0"/>
<path d="M228.955 168.408C228.998 168.403 229.098 168.97 229.215 169.892C229.331 170.813 229.459 172.09 229.559 173.504C229.66 174.919 229.708 176.201 229.708 177.133C229.708 178.065 229.66 178.637 229.617 178.637C229.57 178.637 229.538 178.065 229.485 177.138C229.416 176.1 229.331 174.876 229.241 173.526C229.146 172.175 229.061 170.951 228.987 169.913C228.929 168.986 228.908 168.408 228.955 168.408Z" fill="#263238"/>
<g opacity="0.3">
<g opacity="0.3">
<path opacity="0.3" d="M229.549 178.653C229.549 178.653 232.806 170.808 228.706 165.67C228.563 165.49 228.277 165.543 228.214 165.765C227.848 167.079 227.181 171.11 229.549 178.653Z" fill="black"/>
</g>
</g>
<path d="M219.452 197.554C219.452 197.554 222.064 189.47 217.561 184.681C217.402 184.512 217.121 184.591 217.079 184.814C216.825 186.154 216.481 190.228 219.452 197.554Z" fill="#A986B0"/>
<path d="M218.033 187.388C218.075 187.378 218.223 187.939 218.409 188.845C218.599 189.756 218.833 191.017 219.044 192.415C219.262 193.814 219.41 195.09 219.489 196.017C219.564 196.944 219.564 197.522 219.521 197.527C219.473 197.532 219.399 196.96 219.267 196.044C219.113 195.011 218.933 193.803 218.732 192.463C218.531 191.123 218.345 189.915 218.186 188.882C218.054 187.971 217.99 187.399 218.033 187.388Z" fill="#263238"/>
<g opacity="0.3">
<g opacity="0.3">
<path opacity="0.3" d="M219.452 197.554C219.452 197.554 222.064 189.47 217.561 184.681C217.402 184.512 217.121 184.591 217.079 184.814C216.825 186.154 216.481 190.228 219.452 197.554Z" fill="black"/>
</g>
</g>
<path d="M233.696 169.071C233.696 169.071 240.657 164.197 239.952 157.666C239.926 157.438 239.656 157.327 239.486 157.48C238.474 158.392 235.746 161.432 233.696 169.071Z" fill="#A986B0"/>
<g opacity="0.3">
<g opacity="0.3">
<path opacity="0.3" d="M233.696 169.071C233.696 169.071 240.657 164.197 239.952 157.666C239.926 157.438 239.656 157.327 239.486 157.48C238.474 158.392 235.746 161.432 233.696 169.071Z" fill="black"/>
</g>
</g>
<path d="M238.692 160.102C238.729 160.124 238.512 160.653 238.114 161.496C237.717 162.333 237.14 163.482 236.467 164.727C235.794 165.977 235.148 167.084 234.645 167.868C234.141 168.652 233.797 169.113 233.76 169.087C233.723 169.06 234.004 168.562 234.449 167.752C234.947 166.835 235.535 165.76 236.181 164.573C236.827 163.381 237.41 162.306 237.908 161.39C238.363 160.579 238.655 160.081 238.692 160.102Z" fill="#263238"/>
<path d="M222.26 189.544C222.26 189.544 230.651 188.236 232.902 182.059C232.981 181.842 232.785 181.625 232.563 181.688C231.254 182.059 227.462 183.59 222.26 189.544Z" fill="#A986B0"/>
<g opacity="0.3">
<g opacity="0.3">
<path opacity="0.3" d="M222.26 189.544C222.26 189.544 230.651 188.236 232.902 182.059C232.981 181.842 232.785 181.625 232.563 181.688C231.254 182.059 227.462 183.59 222.26 189.544Z" fill="black"/>
</g>
</g>
<path d="M230.693 183.696C230.719 183.733 230.29 184.109 229.559 184.692C228.834 185.269 227.811 186.048 226.656 186.869C225.502 187.695 224.432 188.405 223.637 188.887C222.842 189.369 222.329 189.629 222.307 189.592C222.281 189.549 222.758 189.226 223.515 188.697C224.368 188.093 225.369 187.388 226.471 186.609C227.573 185.826 228.574 185.116 229.422 184.512C230.19 183.977 230.666 183.659 230.693 183.696Z" fill="#263238"/>
<path d="M214.25 204.986L211.803 221.465H227.059L225.083 204.986H214.25Z" fill="#455A64"/>
<path d="M225.692 210.092C225.692 210.182 222.938 210.251 219.542 210.251C216.142 210.251 213.392 210.182 213.392 210.092C213.392 210.002 216.147 209.933 219.542 209.933C222.938 209.933 225.692 210.008 225.692 210.092Z" fill="#263238"/>
<path d="M225.994 211.406C225.994 211.496 223.15 211.565 219.643 211.565C216.131 211.565 213.292 211.496 213.292 211.406C213.292 211.316 216.136 211.247 219.643 211.247C223.15 211.247 225.994 211.316 225.994 211.406Z" fill="#263238"/>
<path d="M166.671 45.1692C166.671 45.1692 166.528 45.1745 166.258 45.1639C165.982 45.1533 165.58 45.1321 165.045 45.1692C163.985 45.2274 162.401 45.4287 160.531 46.2074C158.683 46.9861 156.521 48.3687 154.8 50.6729C153.947 51.8224 153.232 53.1997 152.798 54.7677C152.379 56.3356 152.236 58.0731 152.437 59.8636C152.665 61.6487 153.211 63.4922 154.212 65.1873C154.71 66.0348 155.298 66.8559 156.013 67.5763C156.707 68.3232 157.528 68.98 158.45 69.4833C159.371 69.9812 160.426 70.299 161.506 70.2514C162.576 70.2143 163.683 69.8382 164.467 69.0595C165.257 68.2808 165.649 67.1419 165.649 66.0083C165.654 64.8641 165.257 63.7252 164.573 62.7611C163.196 60.8277 160.976 59.5299 158.609 58.8253C156.22 58.1314 153.597 58.1102 151.087 58.7194C149.836 59.0425 148.613 59.5246 147.463 60.1602C146.314 60.8012 145.27 61.6381 144.354 62.6022C144.137 62.8565 143.888 63.0843 143.697 63.3544L143.098 64.1596C142.749 64.7317 142.394 65.3038 142.124 65.9289C141.562 67.1578 141.17 68.4768 140.974 69.8329C140.619 72.5451 140.948 75.342 142.044 77.7787C143.104 80.2207 144.91 82.3184 147.161 83.5791C148.284 84.2042 149.524 84.6121 150.785 84.6809C152.04 84.7604 153.295 84.4373 154.36 83.8228C155.425 83.2136 156.315 82.2919 156.781 81.1901C157.242 80.083 157.237 78.8222 156.834 77.7257C156.442 76.6186 155.7 75.6704 154.842 74.9076C153.979 74.1501 152.967 73.578 151.913 73.2072C149.778 72.508 147.5 72.5451 145.466 73.096C143.427 73.6522 141.605 74.701 140.174 76.0465C138.749 77.3973 137.748 79.0553 137.144 80.7451C135.921 84.1565 136.233 87.6156 137.282 90.2642C138.363 92.934 140.079 94.8304 141.647 96.0858C143.231 97.3518 144.666 98.0352 145.657 98.4219C146.155 98.6126 146.536 98.745 146.801 98.8191C147.061 98.8986 147.193 98.9516 147.193 98.9516C147.193 98.9516 147.055 98.9198 146.791 98.8509C146.526 98.7874 146.139 98.6602 145.63 98.4801C144.635 98.1093 143.178 97.4366 141.573 96.1758C139.984 94.9257 138.241 93.0187 137.134 90.3277C136.058 87.6527 135.725 84.1512 136.954 80.6869C137.563 78.9653 138.575 77.2808 140.021 75.8982C141.472 74.5262 143.321 73.4509 145.397 72.8841C147.469 72.3226 149.789 72.2749 151.987 72.9847C153.073 73.3661 154.111 73.9488 155.001 74.7275C155.886 75.5062 156.654 76.4862 157.067 77.6463C157.486 78.7957 157.501 80.1253 157.014 81.296C156.521 82.4667 155.594 83.4202 154.487 84.0612C153.38 84.6968 152.072 85.0358 150.769 84.9564C149.466 84.8875 148.184 84.469 147.029 83.8228C144.719 82.5303 142.876 80.3849 141.795 77.8952C140.678 75.4055 140.344 72.561 140.704 69.8011C140.905 68.4185 141.303 67.0731 141.88 65.8229C142.155 65.1873 142.521 64.6046 142.876 64.0166L143.485 63.1902C143.681 62.9095 143.935 62.6764 144.158 62.4221C145.095 61.4368 146.165 60.584 147.336 59.9324C148.507 59.2862 149.752 58.7988 151.028 58.4651C153.587 57.8453 156.257 57.8665 158.693 58.5764C161.109 59.2968 163.371 60.6158 164.796 62.6181C165.5 63.614 165.919 64.8112 165.908 66.0083C165.908 67.2002 165.495 68.4027 164.647 69.2343C163.805 70.066 162.64 70.458 161.522 70.4897C160.394 70.5321 159.292 70.1984 158.349 69.6846C157.401 69.1654 156.564 68.4874 155.859 67.7299C155.128 66.9883 154.535 66.1513 154.032 65.2932C153.02 63.5663 152.474 61.6911 152.252 59.8848C152.056 58.0678 152.204 56.3092 152.639 54.72C153.084 53.1361 153.815 51.7377 154.683 50.5776C156.437 48.2521 158.63 46.8749 160.5 46.1015C162.391 45.3281 163.991 45.148 165.05 45.1056C165.585 45.0791 165.993 45.1056 166.268 45.1268C166.533 45.1533 166.671 45.1692 166.671 45.1692Z" fill="#263238"/>
<path d="M184.364 98.1729H110.092V155.457H184.364V98.1729Z" fill="#A986B0"/>
<path d="M110.092 98.1729L123.806 110.971H196.823L184.364 98.1729H110.092Z" fill="#A986B0"/>
<path d="M110.092 98.1729C111.432 98.1729 142.108 98.1146 184.364 98.0352H184.422L184.464 98.0775C188.442 102.162 192.574 106.405 196.796 110.738C196.838 110.78 196.881 110.828 196.923 110.87L197.151 111.103H196.823C166.883 111.082 140.312 111.061 123.811 111.05H123.78L123.758 111.029C115.166 102.951 110.542 98.5967 110.092 98.1729C110.547 98.5914 115.209 102.909 123.864 110.907L123.806 110.886C140.307 110.876 166.877 110.854 196.817 110.833L196.717 111.066C196.674 111.024 196.632 110.981 196.589 110.934C192.368 106.595 188.241 102.352 184.263 98.2682L184.358 98.3106C142.108 98.2311 111.426 98.1782 110.092 98.1729Z" fill="#263238"/>
<path d="M132.398 124.59C131.614 124.59 130.894 125.3 130.883 126.084C130.867 126.868 131.561 127.599 132.345 127.631C133.129 127.657 133.876 126.979 133.918 126.195C133.961 125.411 133.299 124.654 132.515 124.595" fill="#263238"/>
<path d="M149.937 124.59C149.153 124.59 148.433 125.3 148.422 126.084C148.406 126.868 149.1 127.599 149.884 127.631C150.668 127.657 151.415 126.979 151.457 126.195C151.5 125.411 150.838 124.654 150.054 124.595" fill="#263238"/>
<path d="M150.048 138.299C149.969 138.331 149.852 136.864 148.576 135.004C147.951 134.083 147.013 133.103 145.768 132.313C144.534 131.519 142.961 130.952 141.266 130.888C139.57 130.857 137.971 131.339 136.694 132.064C135.407 132.785 134.422 133.712 133.743 134.596C132.372 136.382 132.17 137.838 132.096 137.801C132.085 137.801 132.101 137.711 132.138 137.552C132.186 137.393 132.218 137.144 132.334 136.848C132.525 136.244 132.917 135.396 133.59 134.475C134.257 133.553 135.258 132.589 136.567 131.837C137.87 131.079 139.517 130.571 141.271 130.608C143.024 130.671 144.64 131.27 145.901 132.096C147.172 132.922 148.115 133.94 148.729 134.893C149.354 135.847 149.693 136.715 149.852 137.33C149.953 137.632 149.974 137.881 150.006 138.045C150.048 138.214 150.059 138.299 150.048 138.299Z" fill="#263238"/>
<path opacity="0.5" d="M110.256 98.8032L123.393 115.458H184.364V110.971H123.806L110.256 98.8032Z" fill="black"/>
<path d="M169.717 155.33C169.643 155.33 169.579 145.366 169.579 133.076C169.579 120.781 169.643 110.823 169.717 110.823C169.791 110.823 169.854 120.787 169.854 133.076C169.854 145.366 169.791 155.33 169.717 155.33Z" fill="#263238"/>
<path d="M181.376 142.341H174.829V149.741H181.376V142.341Z" fill="#F5F5F5"/>
<path d="M110.092 98.1729L94.8409 110.971H110.092V98.1729Z" fill="#A986B0"/>
<g opacity="0.4">
<path opacity="0.4" d="M110.092 98.1729L94.8409 110.971H110.092V98.1729Z" fill="black"/>
</g>
<path d="M186.557 155.457H101.161V221.322H186.557V155.457Z" fill="#A84D90"/>
<path opacity="0.3" d="M186.557 155.457H101.161V221.322H186.557V155.457Z" fill="black"/>
<path d="M165.156 220.856C165.082 220.856 165.018 206.177 165.018 188.066C165.018 169.955 165.082 155.277 165.156 155.277C165.23 155.277 165.294 169.955 165.294 188.066C165.294 206.177 165.235 220.856 165.156 220.856Z" fill="#263238"/>
<path d="M179.315 206.331H172.768V213.731H179.315V206.331Z" fill="#F5F5F5"/>
<path d="M136.911 155.626H127.212V169.68H136.911V155.626Z" fill="#263238"/>
<path d="M136.911 207.073H127.212V221.126H136.911V207.073Z" fill="#263238"/>
<path d="M185.81 155.457C185.81 155.462 185.736 155.467 185.593 155.473C185.434 155.478 185.222 155.478 184.952 155.489C184.374 155.494 183.543 155.504 182.483 155.515C180.327 155.526 177.234 155.541 173.414 155.557C165.744 155.568 155.165 155.584 143.49 155.6C131.805 155.584 121.232 155.568 113.561 155.557C109.742 155.541 106.648 155.526 104.492 155.515C103.433 155.504 102.607 155.494 102.024 155.489C101.754 155.483 101.542 155.478 101.383 155.473C101.24 155.467 101.166 155.462 101.166 155.457C101.166 155.451 101.24 155.446 101.383 155.441C101.542 155.436 101.754 155.436 102.024 155.425C102.601 155.42 103.433 155.409 104.492 155.398C106.648 155.388 109.742 155.372 113.561 155.356C121.232 155.345 131.81 155.33 143.49 155.314C155.171 155.33 165.744 155.345 173.414 155.356C177.234 155.377 180.327 155.388 182.483 155.398C183.543 155.409 184.369 155.42 184.952 155.425C185.222 155.43 185.434 155.436 185.593 155.441C185.736 155.451 185.81 155.451 185.81 155.457Z" fill="#263238"/>
<path d="M39.4588 41.4241C38.8443 41.2757 35.8832 40.5447 30.1622 39.141L30.2311 39.1304C28.1864 40.4335 25.4159 41.4876 22.2058 41.5353C20.6061 41.53 18.9163 41.3393 17.2318 40.8096C15.5473 40.2852 13.8892 39.4164 12.3848 38.2405C9.37073 35.9097 7.02407 32.1752 6.52084 27.8791C6.26127 25.7444 6.43608 23.4984 7.09823 21.3477C7.77627 19.2023 8.94165 17.1735 10.5149 15.4625C11.3095 14.5567 12.2524 13.8098 13.2059 13.1159C13.7091 12.8033 14.2018 12.4855 14.7209 12.21L15.5102 11.8286L15.9022 11.6379L16.3101 11.4896C18.4766 10.6474 20.7809 10.3242 22.9951 10.4726C25.2093 10.6156 27.3335 11.2354 29.1875 12.21C31.0468 13.1847 32.6413 14.509 33.8914 16.0081C35.1469 17.5125 36.058 19.1917 36.6407 20.8868C37.2181 22.5872 37.4829 24.2929 37.4988 25.9086C37.52 29.1505 36.503 31.9315 35.2687 33.9656V33.8809C37.8643 38.5424 39.1727 40.8996 39.4588 41.4241C39.1621 40.9102 37.8114 38.5795 35.131 33.9656L35.1045 33.9232L35.131 33.8809C36.3334 31.8626 37.3134 29.1081 37.2764 25.9139C37.2552 24.3247 36.985 22.6402 36.4076 20.9716C35.8302 19.303 34.9297 17.6556 33.6901 16.1829C32.4559 14.7103 30.8879 13.4125 29.0604 12.4643C27.2382 11.5108 25.1564 10.9069 22.9792 10.7692C20.8074 10.6262 18.5455 10.9493 16.4266 11.7757L16.024 11.924L15.6373 12.1094L14.8639 12.4855C14.3554 12.7556 13.8733 13.0682 13.3754 13.3754C12.4378 14.0535 11.5161 14.7898 10.7374 15.6744C9.19592 17.3483 8.05173 19.3401 7.38428 21.443C6.73272 23.5513 6.55792 25.7497 6.81218 27.8474C7.30482 32.0639 9.59321 35.7349 12.549 38.0339C14.027 39.1939 15.6479 40.0521 17.3059 40.5765C18.9639 41.1009 20.6273 41.2969 22.2005 41.3128C25.363 41.281 28.1016 40.2587 30.1357 38.9874L30.1675 38.9662L30.2046 38.9768C35.9044 40.4812 38.8496 41.2599 39.4588 41.4241Z" fill="#263238"/>
<path d="M20.675 19.0859L21.1676 26.8516C21.21 27.4873 21.7132 27.9905 22.3489 28.0276C23.0164 28.07 23.6043 27.5773 23.6785 26.9099L24.5419 19.1018C24.6055 18.5085 24.1394 17.9947 23.5461 18.0053L21.6497 18.0318C21.0829 18.0424 20.6432 18.5191 20.675 19.0859Z" fill="#A986B0"/>
<path d="M24.4095 32.3977C24.0811 33.3936 23.0058 33.9286 22.0152 33.6002C21.0193 33.2718 20.4843 32.1964 20.8127 31.2059C21.1412 30.21 22.2165 29.675 23.2071 30.0034C24.2029 30.3318 24.7379 31.4072 24.4095 32.3977Z" fill="#A986B0"/>
</g>
<defs>
<clipPath id="clip0">
<rect width="240" height="225.581" fill="white"/>
</clipPath>
</defs>
</svg>
