<svg width="20" height="19" viewBox="0 0 20 19" fill="none" xmlns="http://www.w3.org/2000/svg">
<path d="M19.54 3.143C18.8644 1.55681 17.6307 0.440608 16.0739 0.146869C15.6039 0.0587477 15.1339 0 14.6639 0C12.4609 0 10.6985 0.969337 9.96411 1.46869C9.20039 0.969337 7.46733 0 5.26429 0C4.79431 0 4.32433 0.0587477 3.85435 0.146869C2.29753 0.469982 1.06383 1.55681 0.446979 3.143C-0.492985 5.55166 0.0651185 8.57716 1.97442 11.2796C5.35241 16.0381 9.55287 17.9181 9.72912 17.9768C9.81724 18.0062 9.90536 18.0355 9.99348 18.0355C10.0816 18.0355 10.1697 18.0062 10.2578 17.9768C10.4341 17.8887 14.6052 16.0088 18.0125 11.2796C19.9218 8.60654 20.5093 5.55166 19.54 3.143ZM16.9551 10.5452C14.2233 14.3638 10.9041 16.2437 9.96411 16.7137C9.02414 16.2437 5.7049 14.3638 2.97313 10.5452C1.29882 8.1953 0.770091 5.61041 1.56319 3.58361C2.03317 2.37928 2.94376 1.55681 4.08934 1.3512C4.4712 1.26308 4.85306 1.2337 5.26429 1.2337C7.70232 1.2337 9.55287 2.70239 9.58225 2.73177C9.81724 2.90801 10.1404 2.90801 10.3753 2.73177C10.4047 2.70239 12.2259 1.2337 14.6933 1.2337C15.0752 1.2337 15.4864 1.26308 15.8683 1.3512C16.9845 1.58619 17.895 2.37928 18.3944 3.58361C19.1581 5.61041 18.6294 8.22468 16.9551 10.5452Z" fill="white"/>
</svg>
