<svg width="25" height="23" viewBox="0 0 25 23" fill="none" xmlns="http://www.w3.org/2000/svg">
<path d="M20.9 16.3C21.6969 15.5544 22.3373 14.6575 22.7837 13.6616C23.2301 12.6658 23.4736 11.591 23.5 10.5C23.5 5.5 18.6 1.5 12.5 1.5C6.4 1.5 1.5 5.5 1.5 10.5C1.5 15.5 6.4 19.5 12.5 19.5C13.5475 19.5213 14.5923 19.3865 15.6 19.1L21.5 21.5L20.9 16.3Z" stroke="white" stroke-width="1.5" stroke-miterlimit="10" stroke-linecap="square"/>
<path d="M12.5 5.5V11.5" stroke="white" stroke-width="1.5" stroke-miterlimit="10" stroke-linecap="square"/>
<path d="M12.5 16.5C13.0523 16.5 13.5 16.0523 13.5 15.5C13.5 14.9477 13.0523 14.5 12.5 14.5C11.9477 14.5 11.5 14.9477 11.5 15.5C11.5 16.0523 11.9477 16.5 12.5 16.5Z" fill="white"/>
</svg>
