<svg width="24" height="24" viewBox="0 0 24 24" fill="none" xmlns="http://www.w3.org/2000/svg">
<path d="M21.9812 8.47375L20.7312 3.47375C20.6625 3.195 20.4112 3 20.125 3H3.875C3.58875 3 3.3375 3.195 3.26875 3.47375L2.01875 8.47375C2.00625 8.5225 2 8.57375 2 8.625C2 9.6725 2.49625 10.5963 3.25 11.1637V19.875C3.25 20.22 3.53 20.5 3.875 20.5H10.125C10.47 20.5 10.75 20.22 10.75 19.875V15.5H13.25V19.875C13.25 20.22 13.53 20.5 13.875 20.5H20.125C20.47 20.5 20.75 20.22 20.75 19.875V11.1637C21.5037 10.5963 22 9.6725 22 8.625C22 8.57375 21.9937 8.5225 21.9812 8.47375ZM19.5 19.25H14.5V14.875C14.5 14.53 14.22 14.25 13.875 14.25H10.125C9.78 14.25 9.5 14.53 9.5 14.875V19.25H4.5V11.7C4.65375 11.7262 4.80875 11.75 4.96875 11.75C5.92125 11.75 6.76875 11.2762 7.3125 10.5413C7.85625 11.2762 8.70375 11.75 9.65625 11.75C10.6088 11.75 11.4563 11.2762 12 10.5413C12.5437 11.2762 13.3912 11.75 14.3438 11.75C15.2963 11.75 16.1438 11.2762 16.6875 10.5413C17.2312 11.2762 18.0788 11.75 19.0312 11.75C19.1912 11.75 19.3463 11.7262 19.5 11.7V19.25ZM19.0312 10.5C18.0837 10.5 17.3125 9.65875 17.3125 8.625C17.3125 8.28 17.0325 8 16.6875 8C16.3425 8 16.0625 8.28 16.0625 8.625C16.0625 9.65875 15.2913 10.5 14.3438 10.5C13.3962 10.5 12.625 9.65875 12.625 8.625C12.625 8.28 12.345 8 12 8C11.655 8 11.375 8.28 11.375 8.625C11.375 9.65875 10.6038 10.5 9.65625 10.5C8.70875 10.5 7.9375 9.65875 7.9375 8.625C7.9375 8.28 7.6575 8 7.3125 8C6.9675 8 6.6875 8.28 6.6875 8.625C6.6875 9.65875 5.91625 10.5 4.96875 10.5C4.04375 10.5 3.28625 9.6975 3.25125 8.6975L4.36375 4.25H19.6375L20.75 8.6975C20.7138 9.6975 19.9562 10.5 19.0312 10.5Z" fill="white"/>
</svg>
