<svg width="15" height="20" viewBox="0 0 15 20" fill="none" xmlns="http://www.w3.org/2000/svg">
<path d="M14.634 17.2738L13.5703 5.56875C13.5403 5.24625 13.2703 5 12.9465 5H11.0715V3.75C11.0715 2.745 10.6828 1.80125 9.97653 1.095C9.27028 0.38875 8.32653 0 7.32153 0C5.25403 0 3.57153 1.6825 3.57153 3.75V5H1.69653C1.37278 5 1.10278 5.24625 1.07403 5.56875L0.0102783 17.2738C-0.0534717 17.9713 0.181528 18.6688 0.654028 19.1863C1.12653 19.7038 1.79903 20 2.50028 20H12.144C12.8453 20 13.5178 19.7038 13.9903 19.1863C14.4628 18.6688 14.6965 17.9713 14.634 17.2738ZM4.82153 3.75C4.82153 2.37125 5.94278 1.25 7.32153 1.25C7.99278 1.25 8.62153 1.50875 9.09278 1.97875C9.56403 2.44875 9.82153 3.07875 9.82153 3.75V5H4.82153V3.75ZM13.0665 18.3438C12.8265 18.605 12.499 18.75 12.1428 18.75H2.50028C2.14528 18.75 1.81653 18.605 1.57778 18.3425C1.33778 18.08 1.22403 17.7413 1.25653 17.3862L2.26778 6.25H3.57153V8.125C3.57153 8.47 3.85153 8.75 4.19653 8.75C4.54153 8.75 4.82153 8.47 4.82153 8.125V6.25H9.82153V8.125C9.82153 8.47 10.1015 8.75 10.4465 8.75C10.7915 8.75 11.0715 8.47 11.0715 8.125V6.25H12.3753L13.3878 17.3875C13.4203 17.7412 13.3065 18.0813 13.0665 18.3438Z" fill="white"/>
</svg>
